<?xml version="1.0" encoding="utf-8"?>
<!-- Generator: Adobe Illustrator 16.0.0, SVG Export Plug-In . SVG Version: 6.00 Build 0)  -->
<!DOCTYPE svg PUBLIC "-//W3C//DTD SVG 1.1//EN" "http://www.w3.org/Graphics/SVG/1.1/DTD/svg11.dtd">
<svg version="1.1" id="Layer_1" xmlns="http://www.w3.org/2000/svg" xmlns:xlink="http://www.w3.org/1999/xlink" x="0px" y="0px"
	 width="152px" height="152px" viewBox="0 0 152 152" enable-background="new 0 0 152 152" xml:space="preserve">
<g>
	<path fill="#A7FFEB" d="M152,120c0,17.6-14.4,32-32,32H32c-17.6,0-32-14.4-32-32V32C0,14.4,14.4,0,32,0H120c17.6,0,32,14.4,32,32
		V120z"/>
	<path fill="#1DE9B6" d="M140,76c0,35.346-28.654,64-64,64C40.654,140,12,111.346,12,76S40.654,12,76,12
		C111.346,12,140,40.654,140,76"/>
	<polygon fill="#455B64" points="106.749,41.771 67.541,80.979 53.02,66.457 38.395,81.082 67.541,110.229 121.374,56.396 	"/>
	<polygon fill="#FFFFFF" points="98.979,41.771 59.771,80.979 45.25,66.457 30.625,81.082 59.771,110.229 113.604,56.396 	"/>
	<path fill="#455B64" d="M59.771,111.644l-30.56-30.562L45.25,65.043l14.521,14.521l39.208-39.208l16.039,16.039L59.771,111.644z
		 M32.04,81.082l27.731,27.732l52.419-52.419l-13.211-13.21L59.771,82.394L45.25,67.871L32.04,81.082z"/>
	<path fill="#455B64" d="M76,140C40.709,140,12,111.289,12,75.999C12,40.71,40.709,12,76,12c35.289,0,64,28.71,64,63.999
		C140,111.289,111.29,140,76,140 M76,14.932c-33.675,0-61.069,27.395-61.069,61.067S42.326,137.068,76,137.068
		c33.674,0,61.068-27.396,61.068-61.069S109.674,14.932,76,14.932"/>
</g>
</svg>
