<?xml version="1.0" encoding="utf-8"?>
<!-- Generator: Adobe Illustrator 16.0.0, SVG Export Plug-In . SVG Version: 6.00 Build 0)  -->
<!DOCTYPE svg PUBLIC "-//W3C//DTD SVG 1.1//EN" "http://www.w3.org/Graphics/SVG/1.1/DTD/svg11.dtd">
<svg version="1.1" id="Layer_1" xmlns="http://www.w3.org/2000/svg" xmlns:xlink="http://www.w3.org/1999/xlink" x="0px" y="0px"
	 width="152px" height="152px" viewBox="0 0 152 152" enable-background="new 0 0 152 152" xml:space="preserve">
<g>
	<path fill="#80D8FF" d="M152,120c0,17.601-14.398,32-32,32H32c-17.6,0-32-14.399-32-32V32C0,14.4,14.4,0,32,0h88
		c17.602,0,32,14.4,32,32V120z"/>
	<path fill="#FFFFFF" d="M63.083,24.833H24.708c-7.035,0-12.728,5.756-12.728,12.792l-0.064,76.75
		c0,7.034,5.757,12.791,12.792,12.791h102.333c7.037,0,12.793-5.757,12.793-12.791V50.417c0-7.035-5.756-12.791-12.793-12.791
		H75.875L63.083,24.833z"/>
	<path fill="#00B0FF" d="M54.522,55.908L54.522,55.908v-0.219L51.499,53l-3.023,2.689v0.219v16.918
		c-2.681-2.106-6.053-3.373-9.726-3.373c-8.712,0-15.774,7.063-15.774,15.774c0,8.712,7.063,15.774,15.774,15.774
		c8.711,0,15.772-7.063,15.772-15.774c0-0.021-0.003-0.039-0.003-0.058h0.003V55.908z M48.491,85.227
		c0,5.381-4.361,9.742-9.741,9.742c-5.382,0-9.743-4.361-9.743-9.742c0-5.38,4.361-9.741,9.743-9.741
		c5.273,0,9.559,4.193,9.726,9.428v0.256h0.013C48.488,85.188,48.491,85.206,48.491,85.227"/>
	<path fill="#37474F" d="M38.749,102.001c-9.249,0-16.773-7.525-16.773-16.774S29.5,68.454,38.749,68.454
		c3.12,0,6.102,0.844,8.727,2.458V55.239l4.023-3.577l4.023,3.577l-0.031,30.93C54.977,95.009,47.664,102.001,38.749,102.001
		 M38.749,70.454c-8.146,0-14.773,6.627-14.773,14.773c0,8.147,6.627,14.774,14.773,14.774s14.773-6.627,14.773-14.774V56.137
		l-2.023-1.799l-2.023,1.799v18.744l-1.618-1.27C45.227,71.545,42.077,70.454,38.749,70.454 M38.749,95.968
		c-5.923,0-10.742-4.818-10.742-10.741s4.819-10.742,10.742-10.742c5.589,0,10.151,4.198,10.681,9.685h0.046l0.013,1
		C49.491,91.149,44.671,95.968,38.749,95.968 M38.749,76.484c-4.82,0-8.742,3.922-8.742,8.742c0,4.821,3.922,8.741,8.742,8.741
		c4.682,0,8.516-3.699,8.732-8.328l-0.006-0.727C47.325,80.2,43.491,76.484,38.749,76.484"/>
	<path fill="#00B0FF" d="M76.802,69.453c-8.711,0-15.774,7.062-15.774,15.774c0,8.711,7.063,15.772,15.774,15.772
		c8.713,0,15.773-7.062,15.773-15.772C92.576,76.515,85.515,69.453,76.802,69.453 M76.802,94.969c-5.38,0-9.742-4.362-9.742-9.741
		c0-5.381,4.362-9.744,9.742-9.744c5.381,0,9.744,4.363,9.744,9.744C86.546,90.606,82.183,94.969,76.802,94.969"/>
	<path fill="#37474F" d="M76.802,102.001c-9.249,0-16.773-7.525-16.773-16.774s7.524-16.773,16.773-16.773
		c9.25,0,16.773,7.524,16.773,16.773S86.052,102.001,76.802,102.001 M76.802,70.454c-8.146,0-14.773,6.627-14.773,14.773
		c0,8.147,6.627,14.774,14.773,14.774s14.773-6.627,14.773-14.774C91.576,77.081,84.949,70.454,76.802,70.454 M76.802,95.968
		c-5.923,0-10.742-4.818-10.742-10.741s4.819-10.742,10.742-10.742c5.924,0,10.742,4.819,10.742,10.742S82.726,95.968,76.802,95.968
		 M76.802,76.484c-4.82,0-8.742,3.922-8.742,8.742c0,4.821,3.922,8.741,8.742,8.741s8.742-3.92,8.742-8.741
		C85.544,80.406,81.623,76.484,76.802,76.484"/>
	<polygon fill="#00B0FF" points="128.775,69.453 124.503,69.453 113,80.957 101.496,69.453 97.226,69.453 97.226,73.723 
		108.73,85.228 97.226,96.729 97.226,101 101.496,101 113,89.496 124.503,101 128.775,101 128.775,96.729 117.269,85.228 
		128.775,73.723 	"/>
	<path fill="#37474F" d="M129.773,102h-5.684L113,90.91L101.91,102h-5.684v-5.685l11.09-11.088l-11.09-11.09v-5.684h5.684
		L113,79.543l11.09-11.09h5.684v5.684l-11.09,11.09l11.09,11.088V102z M124.917,100h2.855v-2.854l-11.918-11.918l11.918-11.918
		v-2.856h-2.855L113,82.371l-11.918-11.918h-2.855v2.856l11.918,11.918L98.226,97.146V100h2.855L113,88.082L124.917,100z"/>
	<path fill="#00B0FF" d="M75.791,37.625L62.999,24.833H24.624c-7.035,0-12.727,5.756-12.727,12.792H75.791z"/>
	<path fill="#37474F" d="M127.041,36.125H76.496L63.704,23.333h-0.083H24.708h-0.083c-7.845,0-14.228,6.411-14.228,14.292v1.5h0.082
		l-0.063,75.25c0,7.881,6.411,14.292,14.292,14.292h102.333c7.881,0,14.293-6.411,14.293-14.292V50.417
		C141.333,42.536,134.921,36.125,127.041,36.125 M62.378,26.333l9.791,9.792H13.59c0.734-5.518,5.434-9.792,11.117-9.792H62.378z
		 M138.333,114.375c0,6.228-5.066,11.292-11.293,11.292H24.708c-6.227,0-11.292-5.064-11.292-11.291l0.063-75.251h61.774h4.158
		h47.629c6.227,0,11.293,5.065,11.293,11.292V114.375z"/>
</g>
</svg>
