<?xml version="1.0" encoding="utf-8"?>
<!-- Generator: Adobe Illustrator 16.0.0, SVG Export Plug-In . SVG Version: 6.00 Build 0)  -->
<!DOCTYPE svg PUBLIC "-//W3C//DTD SVG 1.1//EN" "http://www.w3.org/Graphics/SVG/1.1/DTD/svg11.dtd">
<svg version="1.1" id="Layer_1" xmlns="http://www.w3.org/2000/svg" xmlns:xlink="http://www.w3.org/1999/xlink" x="0px" y="0px"
	 width="192.727px" height="125.474px" viewBox="0 0 192.727 125.474" enable-background="new 0 0 192.727 125.474"
	 xml:space="preserve">
<g>
	<g>
		<path fill="#556F7A" d="M71.693,74.151l6.397,1.434v24.515l-6.397-1.435v-2.559c-2.729,2.798-5.254,4.112-7.574,3.941
			c-1.093-0.069-3.038-1.331-5.834-3.788c-2.798-2.457-4.283-4.162-4.453-5.118c-0.137-0.887-0.205-6.551-0.205-16.991l6.346,1.433
			c-0.172,11.737-0.085,17.965,0.257,18.681c0.682,0.956,1.714,1.262,3.096,0.921s2.917-1.313,4.605-2.917
			c1.689-1.603,2.942-3.36,3.762-5.271L71.693,74.151L71.693,74.151z"/>
		<path fill="#556F7A" d="M105.675,75.79l-0.563,2.764c-3.31-0.75-5.494-1.057-6.551-0.921c-1.672,0.204-2.985,1.015-3.94,2.431
			c-0.955,1.417-1.297,2.771-1.023,4.069c0.068,0.307,0.853,0.272,2.354-0.104c1.502-0.375,3.139-0.758,4.914-1.151
			c1.772-0.392,2.917-0.451,3.429-0.178c2.354,1.228,3.94,2.849,4.759,4.86c0.819,2.015,0.912,3.933,0.281,5.757
			c-0.632,1.826-1.919,3.404-3.864,4.734c-1.943,1.33-4.281,1.996-7.012,1.996c-2.251,0-4.342-0.623-6.269-1.868
			c-1.929-1.245-4.188-3.113-6.781-5.604l0.921-1.74c2.32,1.74,4.776,2.91,7.37,3.506c2.593,0.597,5.007,0.367,7.241-0.691
			c2.233-1.057,3.728-3.002,4.479-5.834c0.033-0.136-0.12-0.188-0.461-0.154c-0.376,0.035-1.313,0.256-2.815,0.666
			c-4.742,1.264-7.762,1.639-9.059,1.127l-0.46-0.256c-1.877-1.433-3.395-3.002-4.555-4.709c-0.854-1.158-1.203-2.388-1.049-3.685
			c0.152-1.296,0.589-2.481,1.305-3.558c0.717-1.074,1.791-1.961,3.224-2.66c1.435-0.699,3.002-1.049,4.708-1.049
			c0.513,0,1.236,0.102,2.175,0.307s2.27,0.555,3.991,1.049C104.148,75.389,105.231,75.687,105.675,75.79z"/>
		<path fill="#556F7A" d="M121.181,70.978c-1.739-0.817-3.037-2.063-3.89-3.735c0.068-0.545,0.58-1.246,1.536-2.098
			c0.955-0.854,1.721-1.348,2.303-1.484c1.74,0.785,3.021,1.996,3.837,3.635C124.388,68.761,123.126,69.991,121.181,70.978z
			 M124.252,75.534v24.515l-6.396-1.433V74.1L124.252,75.534z"/>
		<path fill="#556F7A" d="M155.879,79.679c0.989,0.888,1.757,1.954,2.303,3.198c0.545,1.246,0.861,2.518,0.946,3.813
			c0.085,1.297-0.034,2.61-0.356,3.941c-0.325,1.331-0.812,2.575-1.46,3.735c-0.647,1.16-1.457,2.193-2.43,3.098
			s-2.039,1.586-3.199,2.047c-1.159,0.46-2.447,0.64-3.863,0.538c-1.416-0.103-2.858-0.546-4.324-1.331
			c-1.911-1.023-3.788-2.32-5.629-3.891c-1.467-1.261-2.56-2.687-3.275-4.272c-0.717-1.587-1.049-3.13-0.999-4.632
			c0.051-1.501,0.341-3.002,0.871-4.504c0.529-1.5,1.296-2.797,2.303-3.889s2.106-2.021,3.302-2.791
			c1.193-0.768,2.481-1.168,3.863-1.201c1.383-0.035,2.721,0.256,4.019,0.869C151.256,76.147,153.9,77.905,155.879,79.679z
			 M150.762,79.269c-2.252-1.536-4.59-1.297-7.012,0.716c-2.014,1.707-3.361,3.975-4.043,6.807c-0.75,3.242-0.171,5.682,1.741,7.318
			c0.237,0.205,0.494,0.393,0.768,0.563c1.364,0.751,2.771,0.921,4.223,0.512c1.45-0.409,2.713-1.313,3.787-2.712
			s1.918-2.891,2.533-4.479c0.614-1.586,0.769-3.207,0.46-4.861C152.911,81.479,152.092,80.19,150.762,79.269z"/>
		<path fill="#556F7A" d="M174.406,75.534v2.099c3.037-2.832,5.696-4.179,7.983-4.044c1.092,0.07,3.011,1.426,5.758,4.07
			c2.745,2.645,4.204,4.443,4.375,5.398c0.135,0.888,0.204,6.551,0.204,16.992l-6.346-1.434c0.205-11.701,0.119-17.895-0.257-18.578
			c-0.614-1.16-1.628-1.51-3.044-1.049s-2.884,1.288-4.401,2.482c-1.518,1.193-2.941,2.593-4.272,4.195v14.382l-6.653-1.433V74.1
			L174.406,75.534z"/>
	</g>
	<g>
		<polygon fill="#45B655" points="11.31,38.384 35.849,62.922 60.384,38.384 		"/>
		<polygon fill="none" stroke="#394A52" stroke-miterlimit="10" points="11.31,38.384 35.849,62.922 60.384,38.384 		"/>
		<polygon fill="#FCC31D" points="35.709,1.337 11.17,25.876 60.247,25.876 		"/>
		<polygon fill="none" stroke="#394A52" stroke-miterlimit="10" points="35.709,1.337 11.17,25.876 60.247,25.876 		"/>
		<polygon fill="#85CBA2" points="11.17,25.876 11.17,38.073 0.5,38.073 0.5,62.755 11.17,62.755 11.17,74.954 35.709,50.414 		"/>
		<polygon fill="none" stroke="#394A52" stroke-miterlimit="10" points="11.17,25.876 11.17,38.073 0.5,38.073 0.5,62.755 
			11.17,62.755 11.17,74.954 35.709,50.414 		"/>
		<polygon fill="#F58A83" points="35.709,50.653 11.17,75.192 35.709,99.728 		"/>
		<polygon fill="none" stroke="#394A52" stroke-miterlimit="10" points="35.709,50.653 11.17,75.192 35.709,99.728 		"/>
		<polygon fill="#F15957" points="35.709,1.207 11.17,25.747 35.709,50.285 		"/>
		<polygon fill="none" stroke="#394A52" stroke-miterlimit="10" points="35.709,1.207 11.17,25.747 35.709,50.285 		"/>
		<polygon fill="#F58A83" points="11.17,124.267 35.709,99.728 11.17,75.192 		"/>
		<polygon fill="none" stroke="#394A52" stroke-miterlimit="10" points="11.17,124.267 35.709,99.728 11.17,75.192 		"/>
		<polygon fill="#FFD643" points="84.784,1.337 35.709,1.337 60.247,25.876 		"/>
		<polygon fill="none" stroke="#454646" stroke-miterlimit="10" points="84.784,1.337 35.709,1.337 60.247,25.876 		"/>
		<g opacity="0.3">
			<g>
				<g>
					<rect id="SVGID_1_" x="34.986" y="1.021" fill="#0C0C0C" width="3.403" height="25.521"/>
				</g>
				<g>
					<g>
						<g>
							<g>
								<defs>
									<rect id="SVGID_2_" x="34.986" y="1.021" width="3.403" height="25.521"/>
								</defs>
								<clipPath id="SVGID_3_">
									<use xlink:href="#SVGID_2_"  overflow="visible"/>
								</clipPath>
								<rect x="34.986" y="1.019" clip-path="url(#SVGID_3_)" fill="#0C0C0C" width="3.403" height="25.52"/>
							</g>
						</g>
					</g>
				</g>
			</g>
		</g>
		<path fill="#AFBDC4" d="M99.529,50.386"/>
		<polyline opacity="0.3" fill="#191819" enable-background="new    " points="36.268,50.414 11.802,75.192 11.802,75.192 
			40.945,50.509 41.028,50.437 41.049,50.437 41.099,50.436 41.099,50.435 11.757,25.747 		"/>
	</g>
</g>
</svg>
