<?xml version="1.0" encoding="utf-8"?>
<!-- Generator: Adobe Illustrator 16.0.0, SVG Export Plug-In . SVG Version: 6.00 Build 0)  -->
<!DOCTYPE svg PUBLIC "-//W3C//DTD SVG 1.1//EN" "http://www.w3.org/Graphics/SVG/1.1/DTD/svg11.dtd">
<svg version="1.1" id="Layer_1" xmlns="http://www.w3.org/2000/svg" xmlns:xlink="http://www.w3.org/1999/xlink" x="0px" y="0px"
	 width="26px" height="26px" viewBox="0 0 26 26" enable-background="new 0 0 26 26" xml:space="preserve">
<g id="Layer_2" display="none">
	<rect display="inline" fill="#4061AD" width="26" height="26"/>
</g>
<g id="check" display="none">
	<path display="inline" fill="none" d="M295.641,428.108l-3.055-3.056l12.104-12.104l3.056,3.055L295.641,428.108z"/>
	<path display="inline" fill="none" d="M298.786,425.053l-3.054,3.056l-6.426-6.426l3.055-3.054L298.786,425.053z"/>
	<g display="inline">
		<path fill="#FFFFFF" d="M9.923,21.083l-3.257-3.258L19.575,4.918l3.258,3.257L9.923,21.083z"/>
		<path fill="#FFFFFF" d="M13.277,17.825l-3.257,3.258L3.168,14.23l3.257-3.256L13.277,17.825z"/>
	</g>
</g>
<g id="agsa" display="none">
	<g display="inline">
		<path fill="#FEFFFF" d="M7.541,16.523h9.841v1.117H7.541V16.523z"/>
		<path fill="#FEFFFF" d="M12.639,11.429H10.5v0.953h0.879v1.136c-0.027,0.02-0.057,0.039-0.095,0.066
			c-0.032,0.027-0.08,0.05-0.137,0.076c-0.052,0.021-0.12,0.043-0.198,0.061c-0.078,0.02-0.174,0.022-0.283,0.022
			c-0.186,0-0.349-0.029-0.485-0.083c-0.137-0.059-0.247-0.154-0.336-0.282c-0.093-0.134-0.156-0.3-0.203-0.505
			C9.6,12.668,9.575,12.42,9.575,12.121v-1.057c0-0.293,0.02-0.545,0.059-0.751c0.04-0.206,0.104-0.373,0.184-0.506
			c0.08-0.128,0.184-0.224,0.304-0.283c0.125-0.053,0.27-0.083,0.431-0.083c0.143,0,0.262,0.013,0.361,0.05
			c0.104,0.032,0.186,0.089,0.26,0.167c0.069,0.078,0.121,0.185,0.16,0.313c0.039,0.134,0.067,0.293,0.085,0.489h1.221
			c-0.027-0.334-0.086-0.628-0.176-0.89c-0.094-0.256-0.223-0.471-0.392-0.647c-0.173-0.175-0.387-0.31-0.642-0.397
			c-0.255-0.088-0.559-0.13-0.916-0.13c-0.335,0-0.644,0.051-0.912,0.16C9.33,8.666,9.097,8.832,8.91,9.055
			C8.717,9.278,8.576,9.554,8.471,9.893c-0.1,0.333-0.155,0.726-0.155,1.182v1.048c0,0.456,0.056,0.848,0.163,1.182
			c0.107,0.337,0.257,0.613,0.458,0.83c0.197,0.223,0.439,0.387,0.715,0.496c0.281,0.107,0.594,0.158,0.938,0.158
			c0.293,0,0.554-0.029,0.779-0.08c0.225-0.057,0.42-0.125,0.586-0.205c0.167-0.084,0.304-0.168,0.418-0.262
			c0.109-0.09,0.197-0.168,0.264-0.244v-2.569H12.639z"/>
		<path fill="#FEFFFF" d="M16.115,13.351c-0.021,0.086-0.059,0.157-0.113,0.217c-0.051,0.064-0.119,0.113-0.205,0.146
			c-0.082,0.037-0.186,0.056-0.305,0.056c-0.146,0-0.273-0.019-0.391-0.056c-0.107-0.032-0.203-0.091-0.273-0.176
			c-0.078-0.08-0.137-0.186-0.174-0.314c-0.033-0.135-0.053-0.292-0.053-0.479h-1.259c0,0.353,0.06,0.656,0.187,0.911
			c0.125,0.26,0.285,0.468,0.488,0.64c0.203,0.168,0.431,0.289,0.687,0.373c0.262,0.08,0.522,0.119,0.789,0.119
			c0.295,0,0.563-0.039,0.799-0.117c0.237-0.078,0.438-0.188,0.604-0.334c0.168-0.146,0.293-0.33,0.385-0.544
			c0.094-0.214,0.135-0.453,0.135-0.731c0-0.255-0.035-0.482-0.109-0.687c-0.068-0.205-0.18-0.389-0.32-0.548
			c-0.147-0.164-0.327-0.31-0.543-0.438c-0.217-0.128-0.471-0.245-0.762-0.351c-0.139-0.059-0.266-0.119-0.383-0.185
			c-0.115-0.061-0.215-0.128-0.293-0.198c-0.078-0.075-0.145-0.147-0.186-0.232c-0.049-0.081-0.068-0.175-0.068-0.276
			c0-0.104,0.012-0.194,0.041-0.282c0.029-0.088,0.076-0.166,0.133-0.231c0.053-0.062,0.127-0.111,0.217-0.149
			c0.08-0.038,0.187-0.057,0.306-0.057c0.127,0,0.239,0.021,0.329,0.068c0.091,0.046,0.164,0.106,0.224,0.184
			c0.06,0.079,0.103,0.169,0.129,0.283c0.027,0.109,0.039,0.228,0.039,0.361h1.252c0-0.283-0.045-0.544-0.137-0.778
			c-0.095-0.235-0.222-0.438-0.392-0.606c-0.172-0.168-0.373-0.303-0.613-0.399c-0.239-0.092-0.512-0.14-0.813-0.14
			c-0.285,0-0.551,0.041-0.793,0.126c-0.242,0.081-0.449,0.199-0.625,0.352c-0.174,0.149-0.311,0.333-0.408,0.548
			C13.543,9.642,13.5,9.878,13.5,10.139c0,0.272,0.043,0.508,0.141,0.712c0.096,0.205,0.223,0.382,0.387,0.538
			c0.158,0.156,0.344,0.286,0.557,0.402c0.209,0.115,0.434,0.215,0.666,0.303c0.197,0.079,0.354,0.156,0.471,0.226
			c0.123,0.075,0.213,0.146,0.273,0.223c0.066,0.077,0.107,0.156,0.127,0.243c0.021,0.082,0.029,0.179,0.029,0.287
			C16.148,13.173,16.139,13.264,16.115,13.351z"/>
		<path fill="#FEFFFF" d="M21.541,14.706h1.344l-1.953-6.22h-1.149l-2.777,9.155h1.308l1.192-4.209h1.705L21.541,14.706z
			 M20.35,10.167l0.584,2.217h-1.156L20.35,10.167z"/>
		<path fill="#FEFFFF" d="M4.225,14.706h-1.34l1.955-6.22h1.151l2.782,9.155h-1.28l-1.22-4.209H4.557L4.225,14.706z M5.416,10.168
			l-0.579,2.217H6L5.416,10.168z"/>
	</g>
</g>
<g id="Layer_3">
</g>
<g id="Layer_6">
	<path fill="#FEFEFF" d="M10.852,20.598V14.53h4.044v6.067h5.056v-8.091h3.034l-10.112-9.1l-10.112,9.1h3.033v8.091H10.852z"/>
</g>
</svg>
