<?xml version="1.0" encoding="utf-8"?>
<!-- Generator: Adobe Illustrator 16.0.0, SVG Export Plug-In . SVG Version: 6.00 Build 0)  -->
<!DOCTYPE svg PUBLIC "-//W3C//DTD SVG 1.1//EN" "http://www.w3.org/Graphics/SVG/1.1/DTD/svg11.dtd">
<svg version="1.1" id="Layer_1" xmlns="http://www.w3.org/2000/svg" xmlns:xlink="http://www.w3.org/1999/xlink" x="0px" y="0px"
	 width="108.106px" height="74.52px" viewBox="0 0.048 108.106 74.52" enable-background="new 0 0.048 108.106 74.52"
	 xml:space="preserve">
<g>
	<polygon fill="#41B655" points="6.834,23.039 21.212,37.416 35.59,23.039 	"/>
	<polygon fill="none" stroke="#37474F" stroke-miterlimit="10" points="6.834,23.039 21.212,37.416 35.59,23.039 	"/>
	<polygon fill="#FEC40D" points="21.13,1.331 6.753,15.708 35.508,15.708 	"/>
	<polygon fill="none" stroke="#37474F" stroke-miterlimit="10" points="21.13,1.331 6.753,15.708 35.508,15.708 	"/>
	<polygon fill="#84CBA1" points="6.753,15.708 6.753,22.855 0.5,22.855 0.5,37.319 6.753,37.319 6.753,44.465 21.13,30.087 	"/>
	<polygon fill="none" stroke="#37474F" stroke-miterlimit="10" points="6.753,15.708 6.753,22.855 0.5,22.855 0.5,37.319 
		6.753,37.319 6.753,44.465 21.13,30.087 	"/>
	<polygon fill="#F58981" points="21.13,30.227 6.753,44.604 21.13,58.983 	"/>
	<polygon fill="none" stroke="#37474F" stroke-miterlimit="10" points="21.13,30.227 6.753,44.604 21.13,58.983 	"/>
	<polygon fill="#F58981" points="21.13,1.255 6.753,15.633 21.13,30.011 	"/>
	<polygon fill="none" stroke="#37474F" stroke-miterlimit="10" points="21.13,1.255 6.753,15.633 21.13,30.011 	"/>
	<polygon fill="#F05455" points="6.753,73.361 21.13,58.981 6.753,44.604 	"/>
	<polygon fill="none" stroke="#37474F" stroke-miterlimit="10" points="6.753,73.361 21.13,58.981 6.753,44.604 	"/>
	<polygon fill="#FFD740" points="49.886,1.331 21.13,1.331 35.508,15.708 	"/>
	<polygon fill="none" stroke="#424343" stroke-miterlimit="10" points="49.886,1.331 21.13,1.331 35.508,15.708 	"/>
	<g>
		<g>
			<g>
				<defs>
					<rect id="SVGID_1_" x="20.862" y="1.042" width="2.247" height="14.981"/>
				</defs>
				<clipPath id="SVGID_2_">
					<use xlink:href="#SVGID_1_"  overflow="visible"/>
				</clipPath>
				
					<rect x="20.862" y="1.042" opacity="0.2" clip-path="url(#SVGID_2_)" enable-background="new    " width="2.247" height="14.98"/>
			</g>
		</g>
	</g>
	<polyline opacity="0.3" enable-background="new    " points="7.264,15.654 21.635,30.083 7.51,44.397 7.51,44.397 24.596,30.038 	
		"/>
	<g>
		<path fill="#FFFFFF" d="M46.448,56c0,1.558,0.031,2.933,0.126,4.116h-2.435l-0.155-2.465H43.92
			c-0.717,1.217-2.308,2.808-4.99,2.808c-2.372,0-5.212-1.311-5.212-6.614v-8.83h2.746v8.361c0,2.872,0.874,4.806,3.37,4.806
			c1.84,0,3.121-1.281,3.62-2.495c0.156-0.406,0.25-0.906,0.25-1.404v-9.268h2.745L46.448,56L46.448,56z"/>
		<path fill="#FFFFFF" d="M52.502,57.309c0.812,0.53,2.246,1.092,3.618,1.092c1.996,0,2.935-0.997,2.935-2.244
			c0-1.312-0.781-2.029-2.809-2.778c-2.716-0.967-3.993-2.466-3.993-4.274c0-2.433,1.965-4.429,5.21-4.429
			c1.528,0,2.87,0.436,3.713,0.937l-0.688,1.996c-0.593-0.375-1.685-0.874-3.088-0.874c-1.621,0-2.527,0.937-2.527,2.06
			c0,1.247,0.906,1.809,2.869,2.559c2.621,1,3.963,2.311,3.963,4.558c0,2.65-2.06,4.525-5.646,4.525
			c-1.654,0-3.183-0.406-4.244-1.03L52.502,57.309z"/>
		<path fill="#FFFFFF" d="M70.163,40.773c0.031,0.938-0.654,1.686-1.748,1.686c-0.968,0-1.654-0.748-1.654-1.686
			c0-0.966,0.72-1.716,1.717-1.716C69.508,39.057,70.163,39.807,70.163,40.773z M67.107,60.116V45.015h2.746v15.101H67.107z"/>
		<path fill="#FFFFFF" d="M89.944,52.443c0,5.584-3.869,8.019-7.519,8.019c-4.088,0-7.238-2.996-7.238-7.77
			c0-5.055,3.307-8.02,7.488-8.02C87.011,44.672,89.944,47.825,89.944,52.443z M77.963,52.598c0,3.308,1.904,5.803,4.588,5.803
			c2.62,0,4.585-2.464,4.585-5.863c0-2.56-1.278-5.805-4.523-5.805C79.366,46.733,77.963,49.727,77.963,52.598z"/>
		<path fill="#FFFFFF" d="M95.251,49.103c0-1.561-0.03-2.838-0.123-4.088h2.431l0.157,2.498h0.063
			c0.748-1.436,2.496-2.841,4.992-2.841c2.089,0,5.335,1.249,5.335,6.428v9.016h-2.745v-8.705c0-2.434-0.904-4.461-3.495-4.461
			c-1.809,0-3.213,1.279-3.683,2.807c-0.123,0.345-0.187,0.812-0.187,1.28v9.078H95.25L95.251,49.103L95.251,49.103z"/>
	</g>
</g>
</svg>
