<?xml version="1.0" encoding="utf-8"?>
<!-- Generator: Adobe Illustrator 16.0.0, SVG Export Plug-In . SVG Version: 6.00 Build 0)  -->
<!DOCTYPE svg PUBLIC "-//W3C//DTD SVG 1.1//EN" "http://www.w3.org/Graphics/SVG/1.1/DTD/svg11.dtd">
<svg version="1.1" id="Layer_1" xmlns="http://www.w3.org/2000/svg" xmlns:xlink="http://www.w3.org/1999/xlink" x="0px" y="0px"
	 width="152px" height="152px" viewBox="0 0 152 152" enable-background="new 0 0 152 152" xml:space="preserve">
<g>
	<path fill="#424242" d="M78.499,76c0,1.381-1.117,2.5-2.5,2.5c-1.381,0-2.499-1.119-2.499-2.5c0-1.381,1.118-2.5,2.499-2.5
		C77.382,73.5,78.499,74.619,78.499,76"/>
	<path fill="#80DEEA" d="M151.999,120c0,17.6-14.398,32-32,32H32c-17.6,0-32-14.4-32-32V32C0,14.4,14.4,0,32,0h87.999
		c17.602,0,32,14.4,32,32V120z"/>
	<path fill="#FFFFFF" d="M138.534,75.999c0,34.537-27.998,62.534-62.535,62.534c-34.536,0-62.534-27.997-62.534-62.534
		c0-34.537,27.998-62.534,62.534-62.534C110.536,13.465,138.534,41.462,138.534,75.999"/>
	<path fill="#37474F" d="M75.999,140C40.71,140,12,111.29,12,76s28.71-64,63.999-64c35.289,0,64,28.71,64,64S111.288,140,75.999,140
		 M75.999,14.931c-33.673,0-61.068,27.395-61.068,61.069c0,33.673,27.395,61.068,61.068,61.068s61.07-27.396,61.07-61.068
		C137.069,42.326,109.672,14.931,75.999,14.931"/>
	<polygon fill="#263238" points="97.135,25 54.863,25 24.999,54.863 24.999,97.137 54.863,127 97.135,127 126.999,97.137 
		126.999,74.176 126.999,54.863 	"/>
	<path fill="#263238" d="M97.549,128h-43.1L24,97.551V54.449L54.449,24h43.1L128,54.449v43.102L97.549,128z M55.277,126h41.444
		L126,96.723V55.277L96.721,26H55.277L26,55.277v41.446L55.277,126z"/>
	<polygon fill="#455A64" points="95.479,29 56.521,29 29,56.521 29,95.479 56.521,123 95.479,123 122.999,95.479 122.999,74.319 
		122.999,56.521 	"/>
	<path fill="#FFFFFF" d="M99.862,62.272l-3.957-3.957L70.186,64.25L59.304,53.369c-1.642-1.642-4.293-1.642-5.935,0
		c-1.642,1.642-1.642,4.293,0,5.935L64.25,70.186l-5.935,25.719l3.957,3.957l10.881-20.773l10.88,10.881l-0.988,6.924l2.967,2.969
		l4.947-8.903l8.902-4.946l-2.969-2.968l-6.924,0.99L79.088,73.153L99.862,62.272z"/>
	<path fill="none" stroke="#263238" stroke-width="3" stroke-miterlimit="10" d="M99.862,62.272l-3.957-3.957L70.186,64.25
		L59.304,53.369c-1.642-1.642-4.293-1.642-5.935,0c-1.642,1.642-1.642,4.293,0,5.935L64.25,70.186l-5.935,25.719l3.957,3.957
		l10.881-20.773l10.88,10.881l-0.988,6.924l2.967,2.969l4.947-8.903l8.902-4.946l-2.969-2.968l-6.924,0.99L79.088,73.153
		L99.862,62.272z"/>
</g>
</svg>
