<?xml version="1.0" encoding="utf-8"?>
<!-- Generator: Adobe Illustrator 16.0.0, SVG Export Plug-In . SVG Version: 6.00 Build 0)  -->
<!DOCTYPE svg PUBLIC "-//W3C//DTD SVG 1.1//EN" "http://www.w3.org/Graphics/SVG/1.1/DTD/svg11.dtd">
<svg version="1.1" id="Layer_1" xmlns="http://www.w3.org/2000/svg" xmlns:xlink="http://www.w3.org/1999/xlink" x="0px" y="0px"
	 width="152px" height="152px" viewBox="0 0 152 152" enable-background="new 0 0 152 152" xml:space="preserve">
<path fill="#8C9EFF" d="M152,120c0,17.601-14.399,32-32,32H32c-17.6,0-32-14.399-32-32V32C0,14.4,14.4,0,32,0h88
	c17.601,0,32,14.4,32,32V120z"/>
<path fill="#FFFFFF" d="M135.308,123.703l0.003-0.003l-0.065-0.067c-0.199-0.22-0.408-0.429-0.628-0.627l-12.494-12.493
	c7.775-10.117,12.408-22.773,12.408-36.52c0-33.137-26.863-60-60-60c-33.138,0-60,26.863-60,60c0,33.137,26.862,60,60,60
	c13.178,0,25.354-4.26,35.254-11.461l13.347,13.347l0.032-0.032c1.519,1.34,3.507,2.16,5.692,2.16c4.756,0,8.611-3.855,8.611-8.613
	C137.468,127.21,136.649,125.222,135.308,123.703"/>
<path fill="#37474F" d="M128.856,139.507c-1.977,0-3.899-0.583-5.54-1.662l-0.136,0.141l-1.108-1.045l-12.45-12.449
	c-10.338,7.201-22.442,11.002-35.091,11.002c-33.912,0-61.5-27.588-61.5-61.5c0-33.911,27.588-61.5,61.5-61.5
	c33.911,0,61.5,27.589,61.5,61.5c0,13.223-4.118,25.773-11.926,36.379l11.573,11.574c0.203,0.18,0.449,0.424,0.683,0.686
	l0.071,0.079v-0.001l0.047,0.053l0.832,0.927l-0.065,0.073c1.118,1.66,1.723,3.618,1.723,5.632
	C138.968,134.971,134.432,139.507,128.856,139.507 M123.803,134.43l0.354,0.292c1.305,1.15,2.974,1.785,4.699,1.785
	c3.922,0,7.112-3.189,7.112-7.112c0-1.728-0.634-3.396-1.784-4.698l-0.056-0.061c-0.163-0.182-0.335-0.354-0.516-0.518
	l-13.48-13.476l0.802-1.044c7.914-10.297,12.097-22.609,12.097-35.606c0-32.256-26.243-58.5-58.5-58.5s-58.5,26.244-58.5,58.5
	c0,32.256,26.243,58.5,58.5,58.5c12.439,0,24.325-3.864,34.371-11.174l1.037-0.754L123.803,134.43z"/>
<path fill="#3D5AFE" d="M121.989,74.178c0,26.418-21.416,47.833-47.833,47.833c-26.418,0-47.834-21.415-47.834-47.833
	s21.416-47.833,47.834-47.833C100.573,26.345,121.989,47.76,121.989,74.178"/>
<path fill="#37474F" d="M74.156,123.511c-27.203,0-49.334-22.131-49.334-49.333s22.131-49.333,49.334-49.333
	c27.202,0,49.333,22.131,49.333,49.333S101.358,123.511,74.156,123.511 M74.156,27.845c-25.549,0-46.334,20.785-46.334,46.333
	s20.785,46.333,46.334,46.333c25.548,0,46.333-20.785,46.333-46.333S99.704,27.845,74.156,27.845"/>
<g opacity="0.5">
	<g>
		<defs>
			<rect id="SVGID_1_" x="81.809" y="42.02" width="18" height="18"/>
		</defs>
		<clipPath id="SVGID_2_">
			<use xlink:href="#SVGID_1_"  overflow="visible"/>
		</clipPath>
		<path clip-path="url(#SVGID_2_)" fill="#FFFFFF" d="M99.809,51.02c0,4.97-4.03,9-9,9c-4.971,0-9-4.03-9-9c0-4.971,4.029-9,9-9
			C95.779,42.02,99.809,46.048,99.809,51.02"/>
	</g>
</g>
</svg>
