<?xml version="1.0" encoding="utf-8"?>
<!-- Generator: Adobe Illustrator 16.0.0, SVG Export Plug-In . SVG Version: 6.00 Build 0)  -->
<!DOCTYPE svg PUBLIC "-//W3C//DTD SVG 1.1//EN" "http://www.w3.org/Graphics/SVG/1.1/DTD/svg11.dtd">
<svg version="1.1" id="Layer_1" xmlns="http://www.w3.org/2000/svg" xmlns:xlink="http://www.w3.org/1999/xlink" x="0px" y="0px"
	 width="152px" height="152px" viewBox="0 0 152 152" enable-background="new 0 0 152 152" xml:space="preserve">
<g>
	<path fill="#FEE580" d="M152,120c0,17.6-14.4,32-32,32H32c-17.601,0-32-14.4-32-32V32C0,14.4,14.399,0,32,0H120
		c17.6,0,32,14.4,32,32V120z"/>
	<rect x="25.859" y="22.664" fill="#FEE580" width="33.234" height="106.672"/>
	<path fill="#37474F" d="M59.093,130.361H25.859c-0.567,0-1.025-0.459-1.025-1.025V22.664c0-0.567,0.458-1.025,1.025-1.025h33.234
		c0.567,0,1.025,0.458,1.025,1.025v106.672C60.119,129.902,59.661,130.361,59.093,130.361 M26.883,128.311h31.186V23.689H26.883
		V128.311z"/>
	<rect x="32.246" y="39.572" fill="#EFF1F2" width="20.465" height="53.582"/>
	<path fill="#37474F" d="M52.71,94.18H32.246c-0.567,0-1.025-0.459-1.025-1.025V39.572c0-0.567,0.458-1.025,1.025-1.025H52.71
		c0.567,0,1.025,0.458,1.025,1.025v53.582C53.736,93.721,53.278,94.18,52.71,94.18 M33.27,92.129h18.415V40.597H33.27V92.129z"/>
	<path fill="#FFFFFF" d="M49.77,111.389c0,4.028-3.266,7.295-7.294,7.295s-7.296-3.267-7.296-7.295c0-4.027,3.268-7.295,7.296-7.295
		S49.77,107.361,49.77,111.389"/>
	<path fill="#37474F" d="M42.476,119.707c-4.588,0-8.321-3.73-8.321-8.318s3.733-8.32,8.321-8.32c4.586,0,8.318,3.732,8.318,8.32
		S47.062,119.707,42.476,119.707 M42.476,105.118c-3.458,0-6.271,2.813-6.271,6.271s2.813,6.269,6.271,6.269
		c3.457,0,6.268-2.812,6.268-6.269S45.933,105.118,42.476,105.118"/>
	<rect x="92.905" y="22.664" fill="#FEE580" width="33.234" height="106.672"/>
	<path fill="#37474F" d="M126.139,130.361H92.907c-0.568,0-1.027-0.459-1.027-1.025V22.664c0-0.567,0.459-1.025,1.027-1.025h33.232
		c0.568,0,1.025,0.458,1.025,1.025v106.672C127.165,129.902,126.708,130.361,126.139,130.361 M93.93,128.311h31.186V23.689H93.93
		V128.311z"/>
	<rect x="99.293" y="39.572" fill="#EFF1F2" width="20.465" height="53.582"/>
	<path fill="#37474F" d="M119.758,94.18H99.292c-0.566,0-1.025-0.459-1.025-1.025V39.572c0-0.567,0.459-1.025,1.025-1.025h20.467
		c0.566,0,1.025,0.458,1.025,1.025v53.582C120.784,93.721,120.325,94.18,119.758,94.18 M100.317,92.129h18.416V40.597h-18.416
		V92.129z"/>
	<path fill="#EFF1F2" d="M116.817,111.389c0,4.028-3.266,7.295-7.295,7.295c-4.027,0-7.295-3.267-7.295-7.295
		c0-4.027,3.268-7.295,7.295-7.295C113.551,104.094,116.817,107.361,116.817,111.389"/>
	<path fill="#37474F" d="M109.524,119.707c-4.588,0-8.322-3.73-8.322-8.318s3.734-8.32,8.322-8.32c4.586,0,8.318,3.732,8.318,8.32
		S114.11,119.707,109.524,119.707 M109.524,105.118c-3.459,0-6.271,2.813-6.271,6.271s2.813,6.269,6.271,6.269
		c3.457,0,6.268-2.812,6.268-6.269S112.981,105.118,109.524,105.118"/>
	<rect x="57.632" y="17.048" fill="#FFC400" width="36.735" height="117.903"/>
	<path fill="#37474F" d="M94.368,136.084H57.632c-0.627,0-1.133-0.507-1.133-1.133V17.048c0-0.626,0.506-1.133,1.133-1.133h36.735
		c0.625,0,1.133,0.507,1.133,1.133v117.903C95.5,135.577,94.993,136.084,94.368,136.084 M58.765,133.818h34.47V18.181h-34.47
		V133.818z"/>
	<rect x="64.692" y="35.737" fill="#EFF1F2" width="22.619" height="59.223"/>
	<path fill="#37474F" d="M87.311,96.094H64.692c-0.626,0-1.134-0.508-1.134-1.134V35.736c0-0.626,0.508-1.133,1.134-1.133h22.619
		c0.627,0,1.135,0.507,1.135,1.133V94.96C88.446,95.586,87.938,96.094,87.311,96.094 M65.825,93.827h20.354V36.87H65.825V93.827z"/>
	<path fill="#EFF1F2" d="M84.061,115.115c0,4.451-3.609,8.062-8.061,8.062c-4.454,0-8.064-3.61-8.064-8.062
		c0-4.453,3.61-8.063,8.064-8.063C80.452,107.052,84.061,110.662,84.061,115.115"/>
	<path fill="#37474F" d="M76,124.309c-5.072,0-9.198-4.123-9.198-9.193c0-5.071,4.126-9.197,9.198-9.197
		c5.069,0,9.194,4.126,9.194,9.197C85.194,120.186,81.069,124.309,76,124.309 M76,108.184c-3.822,0-6.932,3.109-6.932,6.932
		c0,3.82,3.11,6.929,6.932,6.929c3.819,0,6.928-3.108,6.928-6.929C82.928,111.293,79.819,108.184,76,108.184"/>
	<path fill="#37474F" d="M76.002,88.093c2.209,0,4-1.79,4-4s-1.791-4-4-4c-2.211,0-4,1.79-4,4S73.791,88.093,76.002,88.093
		 M76.002,90.093c-2.67,0-8,1.341-8,4v2h16.001v-2C84.002,91.434,78.672,90.093,76.002,90.093"/>
</g>
</svg>
