<?xml version="1.0" encoding="utf-8"?>
<!-- Generator: Adobe Illustrator 16.0.0, SVG Export Plug-In . SVG Version: 6.00 Build 0)  -->
<!DOCTYPE svg PUBLIC "-//W3C//DTD SVG 1.1//EN" "http://www.w3.org/Graphics/SVG/1.1/DTD/svg11.dtd">
<svg version="1.1" id="Layer_1" xmlns="http://www.w3.org/2000/svg" xmlns:xlink="http://www.w3.org/1999/xlink" x="0px" y="0px"
	 width="152px" height="152px" viewBox="0 0 152 152" enable-background="new 0 0 152 152" xml:space="preserve">
<g>
	<path fill="#FFFFFF" d="M152,120c0,17.601-14.4,32-32,32H32c-17.6,0-32-14.399-32-32V32C0,14.4,14.4,0,32,0h88
		c17.6,0,32,14.4,32,32V120z"/>
	<rect x="28.38" y="27.751" fill="#FFD740" width="25.595" height="25.595"/>
	<path fill="#37474F" d="M55.975,55.346H26.38V25.751h29.595V55.346z M30.38,51.346h21.595V29.751H30.38V51.346z"/>
	<rect x="63.202" y="27.751" fill="#FFD740" width="25.596" height="25.595"/>
	<path fill="#37474F" d="M90.797,55.346H61.202V25.751h29.596V55.346z M65.202,51.346h21.596V29.751H65.202V51.346z"/>
	<rect x="98.024" y="27.751" fill="#FF5252" width="25.595" height="25.595"/>
	<path fill="#37474F" d="M125.619,55.346H96.024V25.751h29.595V55.346z M100.025,51.346h21.595V29.751h-21.595V51.346z"/>
	<rect x="28.38" y="63.203" fill="#00E676" width="25.595" height="25.595"/>
	<path fill="#37474F" d="M55.975,90.798H26.38V61.203h29.595V90.798z M30.38,86.798h21.595V65.203H30.38V86.798z"/>
	<rect x="63.202" y="63.203" fill="#FFD740" width="25.596" height="25.595"/>
	<path fill="#37474F" d="M90.797,90.798H61.202V61.203h29.596V90.798z M65.202,86.798h21.596V65.203H65.202V86.798z"/>
	<rect x="98.024" y="63.203" fill="#FFD740" width="25.595" height="25.595"/>
	<path fill="#37474F" d="M125.619,90.798H96.024V61.203h29.595V90.798z M100.025,86.798h21.595V65.203h-21.595V86.798z"/>
	<rect x="28.38" y="98.655" fill="#00E676" width="25.595" height="25.595"/>
	<path fill="#37474F" d="M55.975,126.25H26.38V96.655h29.595V126.25z M30.38,122.25h21.595v-21.595H30.38V122.25z"/>
	<rect x="63.202" y="98.655" fill="#00E676" width="25.596" height="25.595"/>
	<path fill="#37474F" d="M90.797,126.25H61.202V96.655h29.596V126.25z M65.202,122.25h21.596v-21.595H65.202V122.25z"/>
	<rect x="98.024" y="98.655" fill="#00E676" width="25.595" height="25.595"/>
	<path fill="#37474F" d="M125.619,126.25H96.024V96.655h29.595V126.25z M100.025,122.25h21.595v-21.595h-21.595V122.25z"/>
	<polygon fill="#37474F" points="45.886,70 39.013,76.873 36.468,74.327 33.905,76.892 39.013,82 48.451,72.564 	"/>
</g>
</svg>
