<?xml version="1.0" encoding="utf-8"?>
<!-- Generator: Adobe Illustrator 16.0.0, SVG Export Plug-In . SVG Version: 6.00 Build 0)  -->
<!DOCTYPE svg PUBLIC "-//W3C//DTD SVG 1.1//EN" "http://www.w3.org/Graphics/SVG/1.1/DTD/svg11.dtd">
<svg version="1.1" id="Layer_1" xmlns="http://www.w3.org/2000/svg" xmlns:xlink="http://www.w3.org/1999/xlink" x="0px" y="0px"
	 width="152px" height="152px" viewBox="0 0 152 152" enable-background="new 0 0 152 152" xml:space="preserve">
<g>
	<path fill="#FFFFFF" d="M152,120c0,17.6-14.4,32-32,32H32c-17.601,0-32-14.4-32-32V32C0,14.399,14.399,0,32,0H120
		c17.6,0,32,14.399,32,32V120z"/>
	<path fill="#EF5451" d="M122.667,16h-6.668h-13.332H49.333H35.999h-6.666c-7.399,0-13.267,6-13.267,13.333l-0.067,93.334
		C15.999,130,21.933,136,29.333,136h93.334c7.332,0,13.332-6,13.332-13.333V29.333C135.999,22,129.999,16,122.667,16"/>
	<path fill="#37474F" d="M122.667,137H29.333C21.429,137,15,130.57,15,122.667l0.065-93.335C15.065,21.43,21.466,15,29.333,15
		h93.334C130.569,15,137,21.43,137,29.333v93.334C137,130.57,130.569,137,122.667,137 M29.333,17
		c-6.765,0-12.268,5.532-12.268,12.333L17,122.668c0,6.8,5.531,12.332,12.333,12.332h93.334c6.801,0,12.334-5.532,12.334-12.333
		V29.333C135,22.532,129.467,17,122.667,17H29.333z"/>
	<path fill="#FFFFFF" d="M64.183,23.157h2.93v9.844c0,0.71-0.12,1.348-0.362,1.914c-0.241,0.566-0.574,1.048-1.001,1.44
		c-0.426,0.394-0.93,0.696-1.513,0.904s-1.213,0.312-1.89,0.312c-0.696,0-1.337-0.088-1.92-0.264
		c-0.582-0.175-1.086-0.444-1.509-0.806s-0.754-0.817-0.991-1.366c-0.236-0.551-0.355-1.204-0.355-1.958h2.949
		c0,0.383,0.042,0.706,0.127,0.966c0.085,0.261,0.207,0.471,0.366,0.63c0.158,0.159,0.352,0.274,0.575,0.342
		c0.226,0.068,0.478,0.104,0.758,0.104c0.56,0,1.006-0.193,1.338-0.577c0.332-0.383,0.498-0.931,0.498-1.641V23.157z"/>
	<path fill="#FFFFFF" d="M77.436,34.446h-5.138l-0.978,2.93h-3.115l5.293-14.219h2.717l5.32,14.219h-3.113L77.436,34.446z
		 M73.09,32.073h3.555l-1.787-5.322L73.09,32.073z"/>
	<polygon fill="#FFFFFF" points="94.428,37.376 91.497,37.376 85.793,28.021 85.793,37.376 82.864,37.376 82.864,23.157 
		85.793,23.157 91.508,32.532 91.508,23.157 94.428,23.157 	"/>
	<path fill="#FFFFFF" d="M24.379,121.639c0,3.3,2.699,6,6,6h91.24c3.299,0,6-2.7,6-6V45.721H24.379V121.639z"/>
	<path fill="#37474F" d="M121.62,128.639h-91.24c-3.858,0-7-3.141-7-7V44.721h105.24v76.918
		C128.62,125.498,125.479,128.639,121.62,128.639 M25.379,46.721v74.918c0,2.757,2.243,5,5,5h91.24c2.756,0,5-2.243,5-5V46.721
		H25.379z"/>
	<rect x="75" y="45.721" fill="#37474F" width="2" height="81.918"/>
	<rect x="24.379" y="85.68" fill="#37474F" width="103.24" height="2"/>
	<path fill="#37474F" d="M42.689,107.909c2.49,0,4.5-2.01,4.5-4.5s-2.01-4.5-4.5-4.5s-4.5,2.01-4.5,4.5
		S40.199,107.909,42.689,107.909 M60.689,98.909h-12v10.5h-12v-13.5h-3v22.5h3v-4.5h27v4.5h3v-13.5
		C66.689,101.594,64.003,98.909,60.689,98.909"/>
	<path fill="#37474F" d="M101.809,106.071c-3.539-3.3-8.279-5.325-13.5-5.325v16.5c5.221,0,9.961,2.025,13.5,5.325
		c3.541-3.285,8.279-5.325,13.5-5.325v-16.5C110.088,100.746,105.35,102.771,101.809,106.071 M101.809,100.746
		c2.49,0,4.5-2.01,4.5-4.5c0-2.489-2.01-4.5-4.5-4.5s-4.5,2.011-4.5,4.5C97.309,98.736,99.319,100.746,101.809,100.746"/>
	<path fill="#37474F" d="M51.876,73.861c3.594-0.557,7.594-0.911,11.813-0.911v6.75H35.001c0-1.097,5.4-3.61,13.5-5.23V63.5
		c-1.418,0.422-2.616,1.367-3.375,2.615c-1.029-1.721-2.919-2.868-5.063-2.868c-2.143,0-4.032,1.147-5.062,2.868
		c0.051-6.041,5.906-11.002,13.5-11.66v-0.067c0-0.933,0.755-1.688,1.688-1.688c0.932,0,1.688,0.755,1.688,1.688v0.067
		c7.594,0.658,13.432,5.619,13.5,11.66c-1.029-1.721-2.919-2.868-5.063-2.868s-4.033,1.147-5.063,2.868
		c-0.759-1.248-1.958-2.193-3.375-2.632V73.861"/>
	<path fill="#37474F" d="M109.168,78.993l2.121-2.121l-3.182-13.789l5.834-5.834c0.881-0.88,0.881-2.301,0-3.182
		c-0.881-0.88-2.303-0.88-3.182,0l-5.834,5.834l-13.789-3.183l-2.121,2.121l11.137,5.834l-5.832,5.834l-3.713-0.531l-1.592,1.592
		l4.773,2.651l2.652,4.773l1.59-1.591l-0.529-3.712l5.832-5.834L109.168,78.993z"/>
</g>
</svg>
