<?xml version="1.0" encoding="utf-8"?>
<!-- Generator: Adobe Illustrator 16.0.0, SVG Export Plug-In . SVG Version: 6.00 Build 0)  -->
<!DOCTYPE svg PUBLIC "-//W3C//DTD SVG 1.1//EN" "http://www.w3.org/Graphics/SVG/1.1/DTD/svg11.dtd">
<svg version="1.1" id="Layer_1" xmlns="http://www.w3.org/2000/svg" xmlns:xlink="http://www.w3.org/1999/xlink" x="0px" y="0px"
	 width="152px" height="152px" viewBox="0 0 152 152" enable-background="new 0 0 152 152" xml:space="preserve">
<g>
	<path fill="#FFFFFF" d="M152,120c0,17.6-14.399,32-32,32H32c-17.6,0-32-14.4-32-32V32C0,14.4,14.4,0,32,0h88
		c17.601,0,32,14.4,32,32V120z"/>
	<path fill="#37474F" d="M106.25,65.178v-6.316L80.987,43.073V25.704c0-2.621-2.116-4.737-4.737-4.737s-4.737,2.116-4.737,4.737
		v17.369L46.25,58.862v6.316l25.263-7.895v17.369l-6.315,4.736v4.736l11.053-3.158l11.053,3.158v-4.736l-6.315-4.736V57.283
		L106.25,65.178z"/>
	<path fill="#69F0AE" d="M106,59.845v-6.316L80.737,37.74V20.371c0-2.621-2.116-4.737-4.737-4.737s-4.737,2.116-4.737,4.737V37.74
		L46,53.529v6.316l25.263-7.895v17.369l-6.315,4.737v4.735L76,75.634l11.053,3.157v-4.735l-6.315-4.737V51.95L106,59.845z"/>
	<path fill="#37474F" d="M88.551,80.78L76,77.193L63.446,80.78v-7.475l6.317-4.737V53.99L44.5,61.885v-9.187l25.264-15.79V20.371
		c0-3.44,2.798-6.237,6.236-6.237s6.236,2.797,6.236,6.237v16.537l25.263,15.79v9.187L82.236,53.99v14.578l6.315,4.737V80.78z
		 M76,74.074l9.552,2.729v-1.998l-6.315-4.737V49.91l25.263,7.894V54.36L79.236,38.57V20.371c0-1.785-1.452-3.237-3.236-3.237
		s-3.236,1.452-3.236,3.237V38.57L47.5,54.36v3.444l25.264-7.894v20.158l-6.317,4.737v1.998L76,74.074z"/>
	<path fill="#B0BEC5" d="M36.009,119.26c0-0.696-0.098-1.326-0.292-1.892c-0.196-0.563-0.58-1.096-1.154-1.599
		c-0.574-0.504-1.38-1-2.415-1.492c-1.034-0.493-2.394-1.016-4.075-1.568c-1.969-0.656-3.866-1.395-5.69-2.216
		c-1.826-0.819-3.446-1.795-4.861-2.922c-1.415-1.128-2.549-2.446-3.398-3.954c-0.852-1.506-1.277-3.265-1.277-5.275
		c0-1.928,0.432-3.664,1.292-5.213c0.862-1.55,2.062-2.867,3.601-3.953c1.537-1.088,3.356-1.929,5.459-2.522
		c2.103-0.595,4.394-0.892,6.876-0.892c2.439,0,4.686,0.328,6.736,0.983c2.05,0.657,3.814,1.589,5.291,2.8
		c1.477,1.209,2.63,2.672,3.46,4.383c0.831,1.713,1.246,3.625,1.246,5.738H36.041c0-0.842-0.129-1.615-0.385-2.324
		c-0.258-0.707-0.646-1.311-1.169-1.813c-0.523-0.503-1.17-0.897-1.938-1.185s-1.676-0.432-2.722-0.432
		c-1.026,0-1.929,0.119-2.707,0.354c-0.78,0.236-1.432,0.564-1.954,0.984c-0.523,0.422-0.918,0.904-1.185,1.447
		c-0.267,0.542-0.399,1.123-0.399,1.738c0,0.677,0.188,1.287,0.568,1.83c0.381,0.543,0.924,1.057,1.631,1.537
		c0.708,0.481,1.568,0.935,2.584,1.354c1.016,0.42,2.158,0.836,3.431,1.247c2.378,0.758,4.501,1.599,6.367,2.522
		c1.866,0.922,3.439,1.979,4.722,3.168c1.281,1.188,2.256,2.533,2.922,4.029c0.666,1.497,1,3.189,1,5.075
		c0,2.011-0.395,3.799-1.184,5.369c-0.79,1.567-1.907,2.886-3.354,3.953c-1.445,1.065-3.188,1.876-5.229,2.429
		c-2.041,0.555-4.313,0.832-6.813,0.832c-1.538,0-3.066-0.129-4.584-0.385c-1.518-0.258-2.968-0.652-4.353-1.186
		c-1.384-0.533-2.676-1.203-3.876-2.014c-1.199-0.811-2.235-1.779-3.107-2.908c-0.872-1.128-1.558-2.408-2.061-3.844
		s-0.753-3.036-0.753-4.799h10.828c0,1.313,0.174,2.414,0.522,3.306c0.348,0.892,0.861,1.616,1.538,2.169
		c0.677,0.555,1.502,0.949,2.476,1.184c0.975,0.236,2.098,0.354,3.369,0.354c1.025,0,1.902-0.118,2.63-0.354
		c0.728-0.234,1.327-0.553,1.8-0.952c0.472-0.401,0.814-0.866,1.03-1.4C35.902,120.42,36.009,119.855,36.009,119.26"/>
	<path fill="#37474F" d="M30.226,132.781c-1.583,0-3.183-0.134-4.749-0.398c-1.578-0.266-3.107-0.684-4.548-1.237
		c-1.449-0.56-2.82-1.272-4.075-2.119c-1.284-0.868-2.407-1.92-3.338-3.125c-0.933-1.206-1.679-2.594-2.215-4.125
		c-0.536-1.532-0.809-3.259-0.809-5.13v-1h12.828v1c0,1.182,0.152,2.172,0.454,2.941c0.288,0.738,0.692,1.313,1.239,1.76
		c0.557,0.456,1.256,0.787,2.077,0.986c0.895,0.217,1.948,0.326,3.135,0.326c0.916,0,1.695-0.103,2.32-0.306
		c0.602-0.194,1.093-0.451,1.462-0.765c0.351-0.297,0.596-0.629,0.749-1.01c0.167-0.412,0.251-0.855,0.251-1.319
		c0-0.581-0.08-1.108-0.236-1.566c-0.137-0.393-0.429-0.786-0.867-1.173c-0.502-0.439-1.237-0.891-2.187-1.341
		c-0.99-0.472-2.323-0.983-3.959-1.521c-1.997-0.666-3.942-1.425-5.788-2.254c-1.89-0.85-3.597-1.876-5.072-3.053
		c-1.512-1.204-2.738-2.633-3.647-4.244c-0.933-1.65-1.406-3.59-1.406-5.768c0-2.09,0.479-4.008,1.419-5.699
		c0.931-1.673,2.24-3.114,3.896-4.283c1.624-1.148,3.563-2.046,5.764-2.668c2.182-0.617,4.585-0.93,7.149-0.93
		c2.532,0,4.901,0.348,7.041,1.031c2.162,0.692,4.054,1.694,5.62,2.979c1.581,1.296,2.835,2.884,3.727,4.721
		c0.894,1.842,1.347,3.92,1.347,6.174v1H35.041v-1c0-0.719-0.109-1.386-0.326-1.983c-0.205-0.563-0.506-1.034-0.921-1.433
		c-0.421-0.406-0.959-0.731-1.595-0.97c-0.654-0.243-1.451-0.366-2.372-0.366c-0.922,0-1.736,0.104-2.418,0.31
		c-0.652,0.196-1.197,0.469-1.617,0.808c-0.406,0.326-0.712,0.698-0.912,1.105c-0.201,0.408-0.298,0.833-0.298,1.299
		c0,0.473,0.127,0.883,0.388,1.257c0.31,0.442,0.771,0.874,1.373,1.285c0.652,0.442,1.461,0.864,2.405,1.256
		c0.996,0.412,2.125,0.822,3.354,1.218c2.414,0.771,4.603,1.637,6.504,2.578c1.944,0.963,3.613,2.083,4.959,3.332
		c1.375,1.276,2.437,2.741,3.154,4.355c0.723,1.621,1.088,3.466,1.088,5.482c0,2.156-0.435,4.113-1.291,5.817
		c-0.859,1.705-2.089,3.153-3.653,4.31c-1.538,1.133-3.409,2.006-5.563,2.59C35.183,132.49,32.802,132.781,30.226,132.781
		 M12.523,117.646c0.076,1.258,0.3,2.421,0.666,3.468c0.466,1.329,1.107,2.527,1.909,3.564c0.801,1.036,1.769,1.942,2.875,2.69
		c1.13,0.762,2.366,1.405,3.676,1.909c1.314,0.507,2.715,0.888,4.161,1.132c1.458,0.246,2.943,0.371,4.416,0.371
		c2.4,0,4.604-0.268,6.552-0.796c1.912-0.519,3.559-1.282,4.896-2.271c1.312-0.965,2.338-2.176,3.055-3.598
		c0.716-1.422,1.078-3.076,1.078-4.918c0-1.736-0.308-3.306-0.914-4.669c-0.608-1.364-1.514-2.612-2.689-3.704
		c-1.203-1.117-2.712-2.128-4.485-3.004c-1.811-0.896-3.906-1.726-6.227-2.466c-1.283-0.414-2.463-0.843-3.509-1.274
		c-1.069-0.443-2-0.932-2.766-1.451c-0.804-0.549-1.438-1.151-1.887-1.793c-0.497-0.711-0.749-1.519-0.749-2.402
		c0-0.768,0.169-1.503,0.503-2.182c0.328-0.668,0.817-1.27,1.454-1.781c0.623-0.5,1.394-0.891,2.291-1.163
		c0.87-0.263,1.879-0.396,2.997-0.396c1.161,0,2.194,0.166,3.071,0.494c0.895,0.332,1.662,0.803,2.28,1.399
		c0.633,0.608,1.109,1.346,1.416,2.192c0.191,0.526,0.32,1.084,0.389,1.666h8.789c-0.11-1.563-0.482-3.004-1.11-4.301
		c-0.765-1.574-1.84-2.936-3.196-4.047c-1.371-1.124-3.041-2.005-4.962-2.62c-1.941-0.62-4.105-0.937-6.431-0.937
		c-2.379,0-4.602,0.287-6.604,0.854c-1.981,0.561-3.717,1.36-5.154,2.377c-1.407,0.995-2.52,2.215-3.303,3.623
		c-0.772,1.391-1.166,2.981-1.166,4.727c0,1.828,0.387,3.438,1.147,4.783c0.783,1.389,1.843,2.621,3.152,3.664
		c1.346,1.072,2.908,2.012,4.647,2.793c1.783,0.801,3.666,1.535,5.597,2.179c1.711,0.563,3.12,1.106,4.188,1.614
		c1.13,0.537,1.994,1.073,2.644,1.642c0.705,0.618,1.189,1.3,1.441,2.026c0.23,0.668,0.346,1.414,0.346,2.218
		c0,0.723-0.133,1.418-0.396,2.067c-0.274,0.68-0.715,1.281-1.311,1.787c-0.57,0.483-1.291,0.867-2.139,1.141
		c-0.823,0.269-1.812,0.404-2.938,0.404c-1.347,0-2.558-0.129-3.604-0.383c-1.116-0.27-2.083-0.734-2.873-1.381
		c-0.809-0.661-1.426-1.529-1.837-2.579c-0.298-0.763-0.484-1.657-0.557-2.671H12.523z"/>
	<path fill="#B0BEC5" d="M61.665,97.881l0.338,3.906c1.108-1.414,2.446-2.521,4.016-3.322c1.567-0.799,3.398-1.198,5.49-1.198
		c1.948,0,3.66,0.394,5.137,1.183c1.478,0.79,2.604,2.067,3.385,3.83c1.065-1.579,2.408-2.809,4.029-3.691
		c1.619-0.881,3.537-1.321,5.752-1.321c1.518,0,2.912,0.219,4.185,0.661c1.271,0.44,2.368,1.168,3.291,2.183
		c0.923,1.017,1.64,2.349,2.153,4c0.513,1.651,0.769,3.687,0.769,6.106v20.949H89.811v-20.949c0-1.025-0.092-1.861-0.277-2.508
		c-0.184-0.646-0.445-1.147-0.784-1.508c-0.338-0.357-0.759-0.604-1.261-0.738c-0.504-0.133-1.062-0.198-1.676-0.198
		c-1.067,0-1.98,0.241-2.738,0.722c-0.76,0.482-1.375,1.154-1.846,2.016c0.02,0.164,0.03,0.322,0.03,0.477v0.477v22.211H70.863
		v-20.889c0-1.045-0.088-1.896-0.262-2.552c-0.175-0.656-0.432-1.169-0.77-1.538s-0.759-0.616-1.261-0.739
		c-0.503-0.123-1.072-0.184-1.707-0.184c-1.006,0-1.893,0.241-2.661,0.722c-0.769,0.482-1.4,1.154-1.892,2.016v23.164H51.944V97.881
		H61.665z"/>
	<path fill="#37474F" d="M101.208,132.166H88.811v-21.949c0-0.927-0.08-1.678-0.238-2.232c-0.139-0.487-0.324-0.856-0.551-1.098
		c-0.209-0.221-0.469-0.371-0.791-0.455c-0.416-0.111-0.894-0.166-1.418-0.166c-0.881,0-1.603,0.185-2.203,0.566
		c-0.545,0.345-0.989,0.804-1.357,1.396c0.005,0.084,0.008,0.168,0.008,0.25v23.688H69.863v-21.889c0-0.951-0.077-1.723-0.229-2.297
		c-0.132-0.494-0.313-0.871-0.538-1.117c-0.204-0.223-0.453-0.367-0.763-0.442c-0.422-0.104-0.917-0.155-1.469-0.155
		c-0.822,0-1.518,0.186-2.13,0.569c-0.568,0.354-1.034,0.828-1.423,1.442v23.889H50.944V96.882h11.638l0.225,2.585
		c0.833-0.748,1.754-1.381,2.757-1.892c1.703-0.868,3.704-1.308,5.944-1.308c2.106,0,3.993,0.437,5.61,1.301
		c1.234,0.66,2.259,1.625,3.061,2.875c0.971-1.113,2.11-2.029,3.402-2.732c1.76-0.959,3.857-1.443,6.23-1.443
		c1.623,0,3.142,0.24,4.513,0.715c1.425,0.496,2.671,1.322,3.702,2.455c1.018,1.121,1.814,2.592,2.369,4.375
		c0.539,1.742,0.813,3.896,0.813,6.404V132.166z M90.811,130.166h8.397v-19.949c0-2.307-0.244-4.262-0.724-5.81
		c-0.467-1.503-1.119-2.722-1.939-3.623c-0.803-0.884-1.771-1.527-2.879-1.912c-1.158-0.401-2.456-0.604-3.855-0.604
		c-2.035,0-3.812,0.403-5.273,1.199c-1.473,0.801-2.709,1.936-3.68,3.373l-1.012,1.499l-0.73-1.653
		c-0.695-1.569-1.657-2.666-2.942-3.354c-1.321-0.707-2.892-1.064-4.666-1.064c-1.923,0-3.617,0.366-5.036,1.088
		c-1.431,0.73-2.668,1.756-3.681,3.049l-1.564,1.998l-0.479-5.521h-7.804v31.284h8.367v-22.43l0.132-0.23
		c0.573-1.003,1.323-1.8,2.229-2.365c0.928-0.58,2-0.875,3.192-0.875c0.712,0,1.366,0.07,1.944,0.213
		c0.695,0.17,1.289,0.519,1.761,1.035c0.446,0.484,0.782,1.143,0.998,1.954c0.199,0.751,0.296,1.671,0.296,2.81v19.889h8.397
		v-21.688c0-0.113-0.01-0.231-0.023-0.353l-0.041-0.319l0.156-0.285c0.551-1.008,1.287-1.808,2.187-2.379
		c0.919-0.582,2.021-0.877,3.274-0.877c0.697,0,1.348,0.077,1.931,0.231c0.683,0.183,1.267,0.524,1.733,1.019
		c0.448,0.478,0.791,1.123,1.02,1.92c0.211,0.744,0.314,1.652,0.314,2.781V130.166z"/>
	<path fill="#B0BEC5" d="M129.709,119.26c0-0.696-0.098-1.326-0.292-1.892c-0.196-0.563-0.58-1.096-1.154-1.599
		c-0.575-0.504-1.38-1-2.415-1.492c-1.035-0.493-2.395-1.016-4.076-1.568c-1.968-0.656-3.865-1.395-5.689-2.216
		c-1.826-0.819-3.446-1.795-4.861-2.922c-1.415-1.128-2.549-2.446-3.398-3.954c-0.852-1.506-1.277-3.265-1.277-5.275
		c0-1.928,0.432-3.664,1.292-5.213c0.862-1.55,2.062-2.867,3.601-3.953c1.537-1.088,3.356-1.929,5.459-2.522
		c2.103-0.595,4.394-0.892,6.875-0.892c2.44,0,4.687,0.328,6.737,0.983c2.05,0.657,3.813,1.589,5.291,2.8
		c1.476,1.209,2.63,2.672,3.46,4.383c0.831,1.713,1.246,3.625,1.246,5.738h-10.766c0-0.842-0.129-1.615-0.385-2.324
		c-0.258-0.707-0.646-1.311-1.17-1.813s-1.169-0.897-1.938-1.185c-0.77-0.287-1.676-0.432-2.723-0.432
		c-1.025,0-1.928,0.119-2.707,0.354c-0.779,0.236-1.431,0.564-1.953,0.984c-0.523,0.422-0.918,0.904-1.185,1.447
		c-0.267,0.542-0.399,1.123-0.399,1.738c0,0.677,0.188,1.287,0.568,1.83c0.381,0.543,0.924,1.057,1.631,1.537
		c0.707,0.481,1.568,0.935,2.584,1.354c1.016,0.42,2.158,0.836,3.43,1.247c2.379,0.758,4.502,1.599,6.367,2.522
		c1.867,0.922,3.44,1.979,4.723,3.168c1.281,1.188,2.256,2.533,2.922,4.029c0.666,1.497,1,3.189,1,5.075
		c0,2.011-0.395,3.799-1.184,5.369c-0.791,1.567-1.907,2.886-3.354,3.953c-1.445,1.065-3.189,1.876-5.23,2.429
		c-2.041,0.555-4.312,0.832-6.813,0.832c-1.538,0-3.066-0.129-4.584-0.385c-1.518-0.258-2.968-0.652-4.354-1.186
		c-1.383-0.533-2.676-1.203-3.875-2.014s-2.235-1.779-3.107-2.908c-0.872-1.128-1.559-2.408-2.061-3.844
		c-0.504-1.436-0.754-3.036-0.754-4.799h10.828c0,1.313,0.174,2.414,0.523,3.306c0.348,0.892,0.861,1.616,1.537,2.169
		c0.678,0.555,1.503,0.949,2.477,1.184c0.975,0.236,2.098,0.354,3.369,0.354c1.025,0,1.902-0.118,2.63-0.354
		c0.728-0.234,1.327-0.553,1.8-0.952c0.471-0.401,0.814-0.866,1.03-1.4C129.602,120.42,129.709,119.855,129.709,119.26"/>
	<path fill="#37474F" d="M123.926,132.781c-1.584,0-3.183-0.134-4.75-0.398c-1.578-0.266-3.106-0.684-4.547-1.237
		c-1.449-0.56-2.82-1.272-4.076-2.119c-1.283-0.868-2.406-1.92-3.338-3.125c-0.932-1.206-1.678-2.594-2.214-4.125
		c-0.536-1.532-0.81-3.259-0.81-5.13v-1h12.828v1c0,1.182,0.152,2.172,0.455,2.941c0.287,0.738,0.692,1.313,1.238,1.76
		c0.557,0.456,1.256,0.787,2.078,0.986c0.895,0.217,1.948,0.326,3.135,0.326c0.916,0,1.695-0.103,2.32-0.306
		c0.602-0.194,1.092-0.451,1.462-0.765c0.351-0.297,0.595-0.629,0.749-1.01c0.167-0.412,0.251-0.855,0.251-1.319
		c0-0.581-0.08-1.108-0.237-1.566c-0.136-0.393-0.428-0.786-0.867-1.173c-0.502-0.439-1.236-0.891-2.186-1.341
		c-0.99-0.472-2.324-0.983-3.959-1.521c-1.997-0.666-3.943-1.425-5.788-2.254c-1.89-0.85-3.597-1.876-5.073-3.053
		c-1.511-1.204-2.738-2.633-3.646-4.244c-0.934-1.65-1.406-3.59-1.406-5.768c0-2.09,0.479-4.008,1.418-5.699
		c0.932-1.673,2.241-3.114,3.896-4.283c1.623-1.148,3.563-2.046,5.764-2.668c2.182-0.617,4.585-0.93,7.148-0.93
		c2.533,0,4.902,0.348,7.041,1.031c2.162,0.692,4.055,1.694,5.621,2.979c1.58,1.296,2.834,2.884,3.727,4.721
		c0.893,1.842,1.346,3.92,1.346,6.174v1h-12.766v-1c0-0.719-0.109-1.386-0.326-1.983c-0.205-0.563-0.506-1.034-0.921-1.433
		c-0.421-0.406-0.959-0.731-1.595-0.97c-0.654-0.243-1.451-0.366-2.373-0.366s-1.735,0.104-2.418,0.31
		c-0.651,0.196-1.196,0.469-1.616,0.808c-0.406,0.326-0.712,0.698-0.912,1.105c-0.201,0.408-0.298,0.833-0.298,1.299
		c0,0.473,0.127,0.883,0.388,1.257c0.31,0.442,0.771,0.874,1.373,1.285c0.652,0.442,1.461,0.864,2.405,1.256
		c0.996,0.412,2.125,0.822,3.354,1.218c2.414,0.771,4.604,1.637,6.504,2.578c1.945,0.963,3.614,2.083,4.959,3.332
		c1.375,1.276,2.438,2.741,3.155,4.355c0.722,1.621,1.087,3.466,1.087,5.482c0,2.156-0.434,4.113-1.291,5.817
		c-0.859,1.705-2.088,3.153-3.652,4.31c-1.539,1.133-3.409,2.006-5.563,2.59C128.883,132.49,126.502,132.781,123.926,132.781
		 M106.223,117.646c0.076,1.258,0.299,2.421,0.666,3.468c0.465,1.329,1.107,2.527,1.908,3.564c0.801,1.036,1.77,1.942,2.875,2.69
		c1.131,0.762,2.367,1.405,3.676,1.909c1.315,0.507,2.715,0.888,4.162,1.132c1.457,0.246,2.943,0.371,4.416,0.371
		c2.4,0,4.604-0.268,6.551-0.796c1.912-0.519,3.56-1.282,4.897-2.271c1.312-0.965,2.338-2.176,3.054-3.598
		c0.717-1.422,1.078-3.076,1.078-4.918c0-1.736-0.307-3.306-0.914-4.669c-0.607-1.364-1.513-2.612-2.688-3.704
		c-1.203-1.117-2.712-2.128-4.485-3.004c-1.811-0.896-3.906-1.726-6.227-2.466c-1.283-0.414-2.463-0.843-3.51-1.274
		c-1.068-0.443-2-0.932-2.765-1.451c-0.804-0.549-1.438-1.151-1.887-1.793c-0.497-0.711-0.749-1.519-0.749-2.402
		c0-0.768,0.169-1.503,0.503-2.182c0.328-0.668,0.817-1.27,1.454-1.781c0.623-0.5,1.393-0.891,2.291-1.163
		c0.869-0.263,1.879-0.396,2.996-0.396c1.162,0,2.195,0.166,3.072,0.494c0.895,0.332,1.662,0.803,2.28,1.399
		c0.632,0.608,1.109,1.346,1.416,2.192c0.191,0.526,0.32,1.084,0.388,1.666h8.789c-0.109-1.563-0.481-3.004-1.109-4.301
		c-0.766-1.574-1.84-2.936-3.196-4.047c-1.371-1.124-3.041-2.005-4.962-2.62c-1.941-0.62-4.105-0.937-6.432-0.937
		c-2.379,0-4.601,0.287-6.604,0.854c-1.982,0.561-3.717,1.36-5.154,2.377c-1.408,0.995-2.52,2.215-3.303,3.623
		c-0.773,1.391-1.166,2.981-1.166,4.727c0,1.828,0.387,3.438,1.146,4.783c0.783,1.389,1.844,2.621,3.152,3.664
		c1.346,1.072,2.909,2.012,4.648,2.793c1.783,0.801,3.666,1.535,5.596,2.179c1.711,0.563,3.121,1.106,4.189,1.614
		c1.13,0.537,1.994,1.073,2.644,1.642c0.705,0.618,1.189,1.3,1.441,2.026c0.229,0.668,0.346,1.414,0.346,2.218
		c0,0.723-0.133,1.418-0.396,2.067c-0.274,0.68-0.715,1.281-1.311,1.787c-0.57,0.483-1.291,0.867-2.139,1.141
		c-0.823,0.269-1.813,0.404-2.938,0.404c-1.347,0-2.558-0.129-3.604-0.383c-1.116-0.27-2.083-0.734-2.873-1.381
		c-0.81-0.661-1.427-1.529-1.837-2.579c-0.299-0.763-0.484-1.657-0.557-2.671H106.223z"/>
</g>
</svg>
