<?xml version="1.0" encoding="utf-8"?>
<!-- Generator: Adobe Illustrator 16.0.0, SVG Export Plug-In . SVG Version: 6.00 Build 0)  -->
<!DOCTYPE svg PUBLIC "-//W3C//DTD SVG 1.1//EN" "http://www.w3.org/Graphics/SVG/1.1/DTD/svg11.dtd">
<svg version="1.1" id="Layer_1" xmlns="http://www.w3.org/2000/svg" xmlns:xlink="http://www.w3.org/1999/xlink" x="0px" y="0px"
	 width="152px" height="152px" viewBox="0 0 152 152" enable-background="new 0 0 152 152" xml:space="preserve">
<g>
	<path fill="#B0BEC5" d="M152,120c0,17.6-14.399,32-32,32H32c-17.6,0-32-14.4-32-32V32C0,14.4,14.4,0,32,0h88
		c17.601,0,32,14.4,32,32V120z"/>
	<path fill="#546E7A" d="M140,76c0,35.346-28.654,64-64,64s-64-28.654-64-64s28.654-64,64-64S140,40.654,140,76"/>
	<path fill="#37474F" d="M75.999,141.5C39.882,141.5,10.5,112.117,10.5,76s29.383-65.5,65.499-65.5c36.117,0,65.5,29.383,65.5,65.5
		S112.116,141.5,75.999,141.5 M75.999,13.5C41.537,13.5,13.5,41.537,13.5,76s28.037,62.5,62.499,62.5
		c34.463,0,62.5-28.037,62.5-62.5S110.461,13.5,75.999,13.5"/>
	<path fill="#37474F" d="M129.984,79.301c0.035-0.763,0.056-1.529,0.056-2.301c0-0.737-0.02-1.47-0.051-2.198
		c2.082-0.488,6.318-1.814,5.993-4.479c-0.325-2.658-4.739-2.974-6.888-2.968c-0.294-1.484-0.654-2.943-1.078-4.376
		c1.91-0.973,5.686-3.264,4.73-5.769c-0.957-2.502-5.315-1.762-7.401-1.245c-0.644-1.365-1.347-2.695-2.106-3.989
		c1.619-1.396,4.739-4.521,3.205-6.728c-1.533-2.206-5.597-0.441-7.494,0.554c-0.949-1.167-1.951-2.293-3.002-3.37
		c1.234-1.736,3.52-5.52,1.496-7.3c-2.02-1.777-5.539,0.9-7.143,2.318c-1.2-0.908-2.442-1.763-3.725-2.563
		c0.778-1.982,2.082-6.191-0.31-7.438c-2.384-1.244-5.151,2.18-6.37,3.94c-1.383-0.596-2.797-1.131-4.24-1.603
		c0.279-2.113,0.527-6.5-2.093-7.142c-2.618-0.642-4.481,3.349-5.237,5.346c-1.479-0.246-2.979-0.432-4.5-0.545
		C83.59,25.33,82.774,21,80.073,21c-2.697,0-3.545,4.32-3.799,6.438c-1.52,0.111-3.02,0.292-4.5,0.534
		c-0.739-1.998-2.574-6.005-5.195-5.362c-2.617,0.64-2.403,5.024-2.14,7.145c-1.443,0.469-2.859,1-4.241,1.593
		c-1.203-1.765-3.947-5.213-6.336-3.968c-2.389,1.246-1.118,5.46-0.352,7.453c-1.284,0.797-2.529,1.649-3.73,2.555
		c-1.59-1.426-5.093-4.133-7.114-2.353c-2.022,1.778,0.233,5.574,1.457,7.324c-1.052,1.076-2.057,2.196-3.008,3.363
		c-1.887-1.008-5.941-2.804-7.478-0.595c-1.531,2.205,1.563,5.348,3.175,6.76c-0.763,1.292-1.469,2.62-2.114,3.983
		c-2.078-0.528-6.436-1.304-7.393,1.202c-0.955,2.503,2.8,4.818,4.707,5.808c-0.427,1.433-0.791,2.891-1.088,4.373
		c-2.144-0.021-6.563,0.262-6.889,2.924c-0.325,2.661,3.895,4.019,5.979,4.521c-0.035,0.763-0.056,1.529-0.056,2.301
		c0,0.737,0.02,1.469,0.052,2.198c-2.084,0.487-6.32,1.813-5.994,4.479c0.325,2.657,4.739,2.975,6.889,2.97
		c0.294,1.482,0.653,2.941,1.077,4.374c-1.909,0.972-5.687,3.262-4.729,5.769c0.956,2.502,5.314,1.761,7.401,1.245
		c0.643,1.365,1.346,2.696,2.105,3.989c-1.619,1.396-4.74,4.521-3.206,6.727c1.534,2.207,5.599,0.442,7.495-0.553
		c0.95,1.167,1.952,2.292,3.002,3.369c-1.233,1.736-3.521,5.521-1.497,7.301c2.021,1.778,5.542-0.901,7.145-2.319
		c1.199,0.908,2.442,1.765,3.725,2.564c-0.78,1.981-2.083,6.19,0.308,7.438c2.388,1.244,5.153-2.18,6.371-3.94
		c1.382,0.596,2.796,1.131,4.24,1.602c-0.28,2.113-0.527,6.501,2.093,7.144c2.617,0.641,4.482-3.35,5.238-5.347
		c1.479,0.246,2.979,0.432,4.499,0.545c0.236,2.116,1.052,6.446,3.755,6.446c2.698,0,3.544-4.322,3.798-6.439
		c1.52-0.111,3.02-0.291,4.499-0.533c0.741,1.997,2.576,6.005,5.196,5.362c2.617-0.641,2.402-5.025,2.139-7.146
		c1.445-0.469,2.859-1,4.243-1.593c1.202,1.765,3.946,5.213,6.336,3.968c2.388-1.244,1.116-5.46,0.351-7.453
		c1.284-0.797,2.529-1.649,3.731-2.555c1.588,1.426,5.091,4.134,7.114,2.353c2.021-1.778-0.234-5.575-1.459-7.323
		c1.054-1.075,2.058-2.197,3.01-3.363c1.885,1.007,5.941,2.804,7.477,0.594c1.532-2.204-1.564-5.349-3.175-6.759
		c0.763-1.292,1.47-2.622,2.113-3.985c2.079,0.531,6.437,1.305,7.394-1.202c0.956-2.501-2.801-4.816-4.707-5.806
		c0.426-1.431,0.791-2.889,1.088-4.373c2.145,0.021,6.563-0.263,6.889-2.924C136.29,81.16,132.069,79.805,129.984,79.301
		 M70.408,32.731c1.751-0.118,7.858,0.17,6.66,10.169c-0.864,7.207-2.114,18.556-2.94,26.16c-7.535-1.568-18.749-3.888-25.899-5.294
		c-10.171-2.004-8.254-8.085-7.637-9.535C46.947,43.404,57.695,35.436,70.408,32.731 M87.346,77c0,4.029-3.289,7.295-7.346,7.295
		c-4.058,0-7.348-3.266-7.348-7.295c0-4.03,3.29-7.296,7.348-7.296C84.057,69.704,87.346,72.97,87.346,77 M89.634,32.74
		c12.709,2.716,23.448,10.693,29.795,21.525c0.653,1.623,2.252,7.473-7.683,9.427c-7.168,1.413-18.424,3.738-25.959,5.307
		c-0.828-7.602-2.072-18.911-2.935-26.099C81.625,32.655,88.068,32.605,89.634,32.74 M46.439,69.232
		c6.637,3.043,17.118,7.729,24.144,10.861c-3.831,6.632-9.516,16.507-13.072,22.827c-5.006,8.892-10.179,5.376-11.451,4.301
		C38.82,99.206,34.414,88.614,34.414,77c0-1.564,0.08-3.113,0.235-4.637C35.087,70.653,37.265,65.023,46.439,69.232 M62.19,106.298
		c4.965-5.326,12.693-13.778,17.862-19.448c5.168,5.668,12.868,14.092,17.819,19.403c7.086,7.602,1.832,11.403,0.512,12.188
		c-5.624,2.464-11.842,3.834-18.383,3.834c-6.56,0-12.791-1.377-18.426-3.854C60.105,117.51,55.282,113.711,62.19,106.298
		 M102.552,102.875c-3.565-6.336-9.272-16.247-13.104-22.881c7.025-3.129,17.471-7.8,24.088-10.835
		c9.383-4.305,11.448,1.683,11.818,3.242c0.152,1.512,0.232,3.046,0.232,4.599c0,11.628-4.416,22.23-11.67,30.248
		C112.511,108.396,107.452,111.578,102.552,102.875"/>
	<path fill="#FFFFFF" d="M125.984,78.301c0.035-0.763,0.056-1.529,0.056-2.301c0-0.737-0.02-1.47-0.051-2.198
		c2.082-0.488,6.318-1.814,5.993-4.479c-0.325-2.658-4.739-2.974-6.888-2.968c-0.294-1.484-0.654-2.943-1.078-4.376
		c1.91-0.973,5.686-3.264,4.73-5.769c-0.957-2.502-5.315-1.762-7.401-1.245c-0.644-1.365-1.347-2.695-2.106-3.989
		c1.619-1.396,4.739-4.521,3.205-6.728c-1.533-2.206-5.597-0.441-7.494,0.554c-0.949-1.167-1.951-2.293-3.002-3.37
		c1.234-1.736,3.52-5.52,1.496-7.3c-2.02-1.777-5.539,0.9-7.143,2.318c-1.2-0.908-2.442-1.763-3.725-2.563
		c0.778-1.982,2.082-6.191-0.31-7.438c-2.384-1.244-5.151,2.18-6.37,3.94c-1.383-0.596-2.797-1.131-4.24-1.603
		c0.279-2.113,0.527-6.5-2.093-7.142c-2.618-0.642-4.481,3.349-5.237,5.346c-1.479-0.246-2.979-0.432-4.5-0.545
		C79.59,24.33,78.774,20,76.073,20c-2.697,0-3.545,4.32-3.799,6.438c-1.52,0.111-3.02,0.292-4.5,0.534
		c-0.739-1.998-2.574-6.005-5.195-5.362c-2.617,0.64-2.403,5.024-2.14,7.145c-1.443,0.469-2.859,1-4.241,1.593
		c-1.203-1.765-3.947-5.213-6.336-3.968c-2.389,1.246-1.118,5.46-0.352,7.453c-1.284,0.797-2.529,1.649-3.73,2.555
		c-1.59-1.426-5.093-4.133-7.114-2.353c-2.022,1.778,0.233,5.574,1.457,7.324c-1.052,1.076-2.057,2.196-3.008,3.363
		c-1.887-1.008-5.941-2.804-7.478-0.595c-1.531,2.205,1.563,5.348,3.175,6.76c-0.763,1.292-1.469,2.62-2.114,3.983
		c-2.078-0.528-6.436-1.304-7.393,1.202c-0.955,2.503,2.8,4.818,4.707,5.808c-0.427,1.433-0.791,2.891-1.088,4.373
		c-2.144-0.021-6.563,0.262-6.889,2.924c-0.325,2.661,3.895,4.019,5.979,4.521c-0.035,0.763-0.056,1.529-0.056,2.301
		c0,0.737,0.02,1.469,0.052,2.198c-2.084,0.487-6.32,1.813-5.994,4.479c0.325,2.657,4.739,2.975,6.889,2.97
		c0.294,1.482,0.653,2.941,1.077,4.374c-1.909,0.972-5.687,3.262-4.729,5.769c0.956,2.502,5.314,1.761,7.401,1.245
		c0.643,1.365,1.346,2.696,2.105,3.989c-1.619,1.396-4.74,4.521-3.206,6.727c1.534,2.207,5.599,0.442,7.495-0.553
		c0.95,1.167,1.952,2.292,3.002,3.369c-1.233,1.736-3.521,5.521-1.497,7.301c2.021,1.778,5.542-0.901,7.145-2.319
		c1.199,0.908,2.442,1.765,3.725,2.564c-0.78,1.981-2.083,6.19,0.308,7.438c2.388,1.244,5.153-2.18,6.371-3.94
		c1.382,0.596,2.796,1.131,4.24,1.602c-0.28,2.113-0.527,6.501,2.093,7.144c2.617,0.641,4.482-3.35,5.238-5.347
		c1.479,0.246,2.979,0.432,4.499,0.545C72.41,127.67,73.224,132,75.927,132c2.698,0,3.544-4.322,3.798-6.439
		c1.52-0.111,3.02-0.291,4.499-0.533c0.741,1.997,2.576,6.005,5.196,5.362c2.617-0.641,2.402-5.025,2.139-7.146
		c1.445-0.469,2.859-1,4.243-1.593c1.202,1.765,3.946,5.213,6.336,3.968c2.388-1.244,1.116-5.46,0.351-7.453
		c1.284-0.797,2.529-1.649,3.731-2.555c1.588,1.426,5.091,4.134,7.114,2.353c2.021-1.778-0.234-5.575-1.459-7.323
		c1.054-1.075,2.058-2.197,3.01-3.363c1.885,1.007,5.941,2.804,7.477,0.594c1.532-2.204-1.564-5.349-3.175-6.759
		c0.763-1.292,1.47-2.622,2.113-3.985c2.079,0.531,6.437,1.305,7.394-1.202c0.956-2.501-2.801-4.816-4.707-5.806
		c0.426-1.431,0.791-2.889,1.088-4.373c2.145,0.021,6.563-0.263,6.889-2.924C132.29,80.16,128.069,78.805,125.984,78.301
		 M66.408,31.731c1.751-0.118,7.858,0.17,6.66,10.169c-0.863,7.207-2.113,18.556-2.94,26.16c-7.535-1.568-18.749-3.888-25.899-5.294
		c-10.171-2.004-8.254-8.085-7.637-9.535C42.947,42.404,53.695,34.436,66.408,31.731 M83.346,76c0,4.029-3.289,7.295-7.346,7.295
		c-4.058,0-7.347-3.266-7.347-7.295c0-4.03,3.289-7.296,7.347-7.296C80.057,68.704,83.346,71.97,83.346,76 M85.634,31.74
		c12.709,2.716,23.448,10.693,29.795,21.525c0.653,1.623,2.252,7.473-7.683,9.427c-7.168,1.413-18.424,3.738-25.959,5.307
		c-0.828-7.602-2.072-18.911-2.935-26.099C77.625,31.655,84.068,31.605,85.634,31.74 M42.439,68.232
		c6.637,3.043,17.118,7.729,24.144,10.861c-3.831,6.632-9.516,16.507-13.072,22.827c-5.006,8.892-10.179,5.376-11.451,4.301
		C34.82,98.206,30.414,87.614,30.414,76c0-1.564,0.08-3.113,0.235-4.637C31.087,69.653,33.265,64.023,42.439,68.232 M58.19,105.298
		c4.965-5.326,12.693-13.778,17.862-19.448c5.168,5.668,12.868,14.092,17.819,19.403c7.086,7.602,1.832,11.403,0.512,12.188
		c-5.624,2.464-11.842,3.834-18.383,3.834c-6.56,0-12.791-1.377-18.426-3.854C56.105,116.51,51.282,112.711,58.19,105.298
		 M98.552,101.875c-3.565-6.336-9.272-16.247-13.104-22.881c7.025-3.129,17.471-7.8,24.088-10.835
		c9.383-4.305,11.448,1.683,11.818,3.242c0.152,1.512,0.232,3.046,0.232,4.599c0,11.628-4.416,22.23-11.67,30.248
		C108.511,107.396,103.452,110.578,98.552,101.875"/>
</g>
</svg>
