<?xml version="1.0" encoding="utf-8"?>
<!-- Generator: Adobe Illustrator 16.0.0, SVG Export Plug-In . SVG Version: 6.00 Build 0)  -->
<!DOCTYPE svg PUBLIC "-//W3C//DTD SVG 1.1//EN" "http://www.w3.org/Graphics/SVG/1.1/DTD/svg11.dtd">
<svg version="1.1" id="Layer_1" xmlns="http://www.w3.org/2000/svg" xmlns:xlink="http://www.w3.org/1999/xlink" x="0px" y="0px"
	 width="152px" height="152px" viewBox="0 0 152 152" enable-background="new 0 0 152 152" xml:space="preserve">
<g>
	<path fill="#BDAAA4" d="M152,120c0,17.6-14.399,32-32,32H32c-17.6,0-32-14.4-32-32V32C0,14.399,14.4,0,32,0h88
		c17.601,0,32,14.399,32,32V120z"/>
	<path fill="#795649" d="M140,76c0,35.346-28.654,64-64,64s-64-28.654-64-64s28.654-64,64-64S140,40.654,140,76"/>
	<path fill="#37474F" d="M118.715,109.448c-17.313-8.235-25.548-11.123-27.503-11.767c-0.372-1.19-0.704-4.311-0.835-6.389
		l-0.031-0.496l-0.414-0.275c-0.758-0.501-2.113-0.754-3.195-0.88c2.166-4.087,4.567-7.584,4.611-7.649
		c2.041-3.197,2.161-8.914,2.15-10.595c1.216-1.202,1.351-2.401,1.363-2.546l0.008-0.104l-0.012-0.104
		c-0.311-2.458,0.674-5.522,0.684-5.552l0.048-0.253c0.041-0.715-0.132-1.283-0.513-1.688c-0.092-0.097-0.193-0.181-0.303-0.253
		c3.782-13.474,2.271-16.633,1.318-17.37c-0.168-0.145-0.395-0.275-0.639-0.393c0.139-0.633,0.035-1.375-0.174-2.01
		c-0.793-2.089-4.101-5.06-4.684-5.572c-6.871-7.782-26.992-7.354-26.988-7.354l-1.21,0.073l0.266,1.193
		c0.144,0.642-1.447,3.067-3.389,5.147c-1.559,1.948-1.652,4.131-1.655,4.224l-0.002,0.055l0.004,0.057
		c0.249,3.238-2.674,8.937-2.704,8.994l-0.098,0.191l-0.013,0.214c-0.172,3.217,1.595,9.871,2.334,12.495
		c-0.154,0.095-0.294,0.218-0.409,0.366c-0.59,0.744-0.37,1.822-0.321,2.031l0.03,0.101c0.812,2.306,0.633,5.334,0.629,5.427
		c0,1.168,0.829,2.139,1.357,2.64c-0.168,7.047,2.075,10.461,2.196,10.639c1.327,1.803,3.438,5.573,4.541,7.595
		c-0.862,0.118-1.949,0.348-2.96,0.802l-0.575,0.259l-0.015,0.632c-0.001,0.034-0.085,3.349-0.91,6.395
		c-2.512,0.924-14.432,5.395-27.387,11.701c-0.642,0.238-5.863,2.274-7.706,6.004c0.233,0.299,0.463,0.601,0.702,0.895
		c0.243,0.299,0.505,0.582,0.754,0.877c0.876-3.672,6.917-5.89,6.979-5.912l0.1-0.041c14.436-7.033,27.586-11.771,27.717-11.817
		l0.475-0.171l0.146-0.482c0.788-2.623,1.029-5.468,1.101-6.734c1.506-0.52,3.097-0.526,3.182-0.526l1.678,0.012l-0.785-1.479
		c-0.142-0.268-3.484-6.553-5.398-9.153c-0.021-0.031-2.078-3.242-1.819-9.896l0.02-0.525l-0.42-0.313
		c-0.339-0.255-0.972-0.925-0.973-1.33c0.008-0.141,0.206-3.407-0.721-6.094c-0.004-0.025-0.008-0.058-0.012-0.09l1.533,0.369
		l-0.499-1.667c-0.027-0.09-2.662-8.938-2.573-12.693c0.553-1.106,3.049-6.326,2.823-9.79c0.022-0.269,0.184-1.716,1.164-2.946
		c1.086-1.16,3.303-3.715,3.783-5.726c3.937,0.029,19.188,0.552,24.566,6.724l0.097,0.096c1.358,1.184,3.694,3.539,4.164,4.771
		c0.092,0.286,0.143,0.671,0.122,0.861l-0.64,0.321l0.508,1.554l0.496,0.153c0.355,0.108,0.799,0.29,0.876,0.338l0.04,0.04
		c0.158,0.256,1.589,3.09-2.236,16.306l-0.503,1.711l1.522-0.408c-0.229,0.761-0.998,3.566-0.725,6.077
		c-0.053,0.215-0.258,0.827-1.008,1.455l-0.373,0.314l0.016,0.485c0.002,0.067,0.199,6.745-1.809,9.891
		c-0.123,0.179-3.044,4.432-5.416,9.188l-0.693,1.389l1.552,0.057c0.954,0.035,2.475,0.208,3.297,0.486
		c0.124,1.689,0.481,5.707,1.166,6.965l0.196,0.361l0.392,0.118c0.08,0.024,8.177,2.524,27.772,11.843
		c0.063,0.022,6.106,2.24,6.982,5.914l-0.193,0.221c-12.313,14.048-30.08,22.104-48.738,22.104s-36.424-8.056-48.736-22.101
		C39,131.229,56.465,140,75.999,140c20.057,0,37.949-9.231,49.685-23.671c0.24-0.295,0.47-0.598,0.705-0.897
		C124.471,111.557,118.909,109.514,118.715,109.448"/>
	<path fill="#FFFFFF" d="M75.999,139.532c18.659,0,36.426-8.058,48.739-22.104l0.192-0.222c-0.875-3.673-6.92-5.891-6.982-5.913
		c-19.596-9.318-27.692-11.818-27.771-11.843l-0.393-0.119l-0.196-0.36c-0.685-1.258-1.042-5.275-1.166-6.965
		c-0.821-0.278-2.343-0.451-3.297-0.486l-1.552-0.057l0.693-1.389c2.373-4.756,5.293-9.009,5.416-9.188
		c2.006-3.146,1.812-9.823,1.81-9.891l-0.017-0.485l0.373-0.314c0.75-0.628,0.955-1.241,1.006-1.455
		c-0.271-2.511,0.498-5.316,0.727-6.078l-1.521,0.409l0.502-1.711c3.826-13.216,2.395-16.05,2.236-16.306l-0.039-0.04
		c-0.078-0.048-0.521-0.229-0.877-0.338l-0.496-0.153l-0.508-1.554l0.641-0.321c0.02-0.19-0.032-0.575-0.123-0.861
		c-0.469-1.232-2.805-3.588-4.164-4.771l-0.096-0.096c-5.38-6.173-20.631-6.694-24.568-6.724c-0.479,2.01-2.696,4.565-3.782,5.726
		c-0.979,1.23-1.141,2.678-1.164,2.946c0.227,3.463-2.27,8.684-2.822,9.79c-0.09,3.754,2.546,12.604,2.572,12.693l0.499,1.667
		l-1.533-0.369c0.005,0.032,0.009,0.064,0.013,0.09c0.925,2.687,0.728,5.953,0.719,6.094c0.002,0.405,0.635,1.075,0.974,1.329
		l0.42,0.314l-0.021,0.525c-0.257,6.654,1.8,9.865,1.821,9.896c1.914,2.6,5.257,8.886,5.397,9.153l0.785,1.479l-1.677-0.012
		c-0.085,0-1.676,0.007-3.183,0.526c-0.07,1.267-0.313,4.111-1.102,6.734l-0.146,0.482l-0.475,0.17
		c-0.132,0.048-13.281,4.785-27.718,11.818l-0.098,0.041c-0.064,0.022-6.104,2.24-6.98,5.912c0.064,0.077,0.13,0.151,0.194,0.227
		C39.575,131.477,57.34,139.532,75.999,139.532"/>
	<path fill="#37474F" d="M76,140c-35.29,0-64-28.711-64-64.001C12,40.71,40.709,12,76,12s64,28.71,64,63.999
		C140,111.289,111.29,140,76,140 M76,14.932c-33.674,0-61.069,27.395-61.069,61.067S42.326,137.068,76,137.068
		s61.069-27.396,61.069-61.069S109.673,14.932,76,14.932"/>
</g>
</svg>
